<svg width="20" height="20" viewBox="0 0 20 20" fill="none" xmlns="http://www.w3.org/2000/svg">
<path fill-rule="evenodd" clip-rule="evenodd" d="M9.98901 19.9998C12.936 18.027 17.0809 14.838 19.017 11.4019C22.0499 6.02049 17.7924 0 9.98901 0C4.18027 0 0.435593 3.25351 0.0324769 7.1136C-0.110135 8.47975 0.185864 10.8089 1.54416 11.7406C1.98277 12.0415 2.48445 12.1637 3.02004 12.1487C3.40984 12.1379 3.85479 12.0417 4.32066 11.8919C6.02693 11.2172 7.29491 10.3765 8.6418 9.32517C7.47904 10.6451 5.48342 12.943 5.25302 14.3135C5.11073 15.1607 5.30215 16.0265 6.0019 16.897C6.98148 18.1158 8.6624 19.0882 9.98869 20L9.98901 19.9998ZM3.37086 10.6775C1.7866 10.4881 1.84523 7.88449 2.01668 6.8696C2.2005 5.78337 2.71738 4.73502 3.61077 3.82664C5.15953 2.25166 7.46763 1.50684 9.98901 1.50684C16.4113 1.50684 19.6974 6.43299 17.2378 10.7978C15.7619 13.4167 12.8137 15.968 9.98838 17.9828C9.15077 17.3863 8.12491 16.7824 7.454 16.0669C5.62128 14.1121 8.56479 9.77038 10.4178 8.35529C10.4178 8.35529 10.9822 9.09297 12.1114 10.5686C12.344 10.3957 12.4337 10.1369 12.344 9.89681C12.0629 9.04279 11.8034 8.18483 11.5657 7.32293C11.8439 7.08384 13.7977 5.39571 13.4481 5.0757C12.9908 4.85235 11.1125 6.59115 10.8466 6.8386C9.71393 6.77711 8.58254 6.6984 7.45369 6.60271C7.13487 6.56778 6.81732 6.67306 6.62971 6.87599C8.67064 7.53594 9.69143 7.8658 9.69143 7.8658C8.36672 9.02434 5.33542 10.9122 3.37055 10.677L3.37086 10.6775Z" fill="url(#paint0_linear_29_8)"/>
<mask id="mask0_29_8" style="mask-type:luminance" maskUnits="userSpaceOnUse" x="0" y="0" width="20" height="20">
<path d="M9.98901 19.9998C12.936 18.027 17.0809 14.838 19.017 11.4019C22.0499 6.02049 17.7924 0 9.98901 0C4.18027 0 0.435593 3.25351 0.0324769 7.1136C-0.110135 8.47975 0.185864 10.8089 1.54416 11.7406C1.98277 12.0415 2.48445 12.1637 3.02004 12.1487C3.40984 12.1379 3.85479 12.0417 4.32066 11.8919C6.02693 11.2172 7.29491 10.3765 8.6418 9.32517C7.47904 10.6451 5.48342 12.943 5.25302 14.3135C5.11073 15.1607 5.30215 16.0265 6.0019 16.897C6.98148 18.1158 8.6624 19.0882 9.98869 20L9.98901 19.9998ZM3.37086 10.6775C1.7866 10.4881 1.84523 7.88449 2.01668 6.8696C2.2005 5.78337 2.71738 4.73502 3.61077 3.82664C5.15953 2.25166 7.46763 1.50684 9.98901 1.50684C16.4113 1.50684 19.6974 6.43299 17.2378 10.7978C15.7619 13.4167 12.8137 15.968 9.98838 17.9828C9.15077 17.3863 8.12491 16.7824 7.454 16.0669C5.62128 14.1121 8.56479 9.77038 10.4178 8.35529C10.4178 8.35529 10.9822 9.09297 12.1114 10.5686C12.344 10.3957 12.4337 10.1369 12.344 9.89681C12.0629 9.04279 11.8034 8.18483 11.5657 7.32293C11.8439 7.08384 13.7977 5.39571 13.4481 5.0757C12.9908 4.85235 11.1125 6.59115 10.8466 6.8386C9.71393 6.77711 8.58254 6.6984 7.45369 6.60271C7.13487 6.56778 6.81732 6.67306 6.62971 6.87599C8.67064 7.53594 9.69143 7.8658 9.69143 7.8658C8.36672 9.02434 5.33542 10.9122 3.37055 10.677L3.37086 10.6775Z" fill="white"/>
</mask>
<g mask="url(#mask0_29_8)">
<path d="M-6.52714 10.971L-6.55859 11.0059L11.6209 20.8895L11.6524 20.8547L-6.52714 10.971Z" fill="url(#paint1_linear_29_8)"/>
<path d="M-6.44843 10.8858L-6.56641 11.0166L11.6153 20.8978L11.7333 20.767L-6.44843 10.8858Z" fill="url(#paint2_linear_29_8)"/>
<path d="M-6.37034 10.7979L-6.48828 10.9287L11.6957 20.8075L11.8136 20.6767L-6.37034 10.7979Z" fill="url(#paint3_linear_29_8)"/>
<path d="M-6.29023 10.7101L-6.4082 10.8408L11.7735 20.722L11.8915 20.5913L-6.29023 10.7101Z" fill="url(#paint4_linear_29_8)"/>
<path d="M-6.21208 10.6222L-6.33008 10.7529L11.8494 20.6366L11.9674 20.5059L-6.21208 10.6222Z" fill="url(#paint5_linear_29_8)"/>
<path d="M-6.13401 10.5362L-6.25195 10.667L11.932 20.5457L12.05 20.415L-6.13401 10.5362Z" fill="url(#paint6_linear_29_8)"/>
<path d="M-6.05586 10.4503L-6.17383 10.5811L12.0079 20.4623L12.1259 20.3315L-6.05586 10.4503Z" fill="url(#paint7_linear_29_8)"/>
<path d="M-5.97773 10.3624L-6.0957 10.4932L12.086 20.3744L12.204 20.2436L-5.97773 10.3624Z" fill="url(#paint8_linear_29_8)"/>
<path d="M-5.89768 10.2745L-6.01562 10.4053L12.1683 20.284L12.2863 20.1532L-5.89768 10.2745Z" fill="url(#paint9_linear_29_8)"/>
<path d="M-5.81953 10.1866L-5.9375 10.3174L12.2442 20.1986L12.3622 20.0678L-5.81953 10.1866Z" fill="url(#paint10_linear_29_8)"/>
<path d="M-5.7414 10.1017L-5.85938 10.2324L12.3224 20.1136L12.4403 19.9829L-5.7414 10.1017Z" fill="url(#paint11_linear_29_8)"/>
<path d="M-5.66331 10.0137L-5.78125 10.1445L12.4027 20.0233L12.5207 19.8925L-5.66331 10.0137Z" fill="url(#paint12_linear_29_8)"/>
<path d="M-5.5832 9.92685L-5.70117 10.0576L12.4806 19.9388L12.5985 19.8081L-5.5832 9.92685Z" fill="url(#paint13_linear_29_8)"/>
<path d="M-5.50507 9.83994L-5.62305 9.9707L12.5587 19.8519L12.6767 19.7211L-5.50507 9.83994Z" fill="url(#paint14_linear_29_8)"/>
<path d="M-5.42698 9.75203L-5.54492 9.88281L12.639 19.7616L12.757 19.6308L-5.42698 9.75203Z" fill="url(#paint15_linear_29_8)"/>
<path d="M-5.34687 9.66318L-5.46484 9.79395L12.7169 19.6752L12.8349 19.5444L-5.34687 9.66318Z" fill="url(#paint16_linear_29_8)"/>
<path d="M-5.26875 9.57822L-5.38672 9.70898L12.795 19.5902L12.913 19.4594L-5.26875 9.57822Z" fill="url(#paint17_linear_29_8)"/>
<path d="M-5.19062 9.4913L-5.30859 9.62207L12.8731 19.5033L12.9911 19.3725L-5.19062 9.4913Z" fill="url(#paint18_linear_29_8)"/>
<path d="M-5.1125 9.40341L-5.23047 9.53418L12.9513 19.4154L13.0692 19.2846L-5.1125 9.40341Z" fill="url(#paint19_linear_29_8)"/>
<path d="M-5.03437 9.31747L-5.15234 9.44824L13.0294 19.3295L13.1474 19.1987L-5.03437 9.31747Z" fill="url(#paint20_linear_29_8)"/>
<path d="M-4.95429 9.22763L-5.07227 9.3584L13.1095 19.2396L13.2274 19.1088L-4.95429 9.22763Z" fill="url(#paint21_linear_29_8)"/>
<path d="M-4.87617 9.14072L-4.99414 9.27148L13.1876 19.1527L13.3056 19.0219L-4.87617 9.14072Z" fill="url(#paint22_linear_29_8)"/>
<path d="M-4.79804 9.05576L-4.91602 9.18652L13.2657 19.0677L13.3837 18.937L-4.79804 9.05576Z" fill="url(#paint23_linear_29_8)"/>
<path d="M-4.71797 8.96787L-4.83594 9.09863L13.3458 18.9798L13.4638 18.8491L-4.71797 8.96787Z" fill="url(#paint24_linear_29_8)"/>
<path d="M-4.63984 8.88095L-4.75781 9.01172L13.4239 18.8929L13.5419 18.7622L-4.63984 8.88095Z" fill="url(#paint25_linear_29_8)"/>
<path d="M-4.56172 8.79404L-4.67969 8.9248L13.5021 18.806L13.62 18.6752L-4.56172 8.79404Z" fill="url(#paint26_linear_29_8)"/>
<path d="M-4.48164 8.70517L-4.59961 8.83594L13.5821 18.7172L13.7001 18.5864L-4.48164 8.70517Z" fill="url(#paint27_linear_29_8)"/>
<path d="M-4.40351 8.61826L-4.52148 8.74902L13.6603 18.6302L13.7782 18.4995L-4.40351 8.61826Z" fill="url(#paint28_linear_29_8)"/>
<path d="M-4.32539 8.53232L-4.44336 8.66309L13.7384 18.5443L13.8564 18.4135L-4.32539 8.53232Z" fill="url(#paint29_linear_29_8)"/>
<path d="M-4.24726 8.44443L-4.36523 8.5752L13.8165 18.4564L13.9345 18.3256L-4.24726 8.44443Z" fill="url(#paint30_linear_29_8)"/>
<path d="M-4.16914 8.35751L-4.28711 8.48828L13.8946 18.3695L14.0126 18.2387L-4.16914 8.35751Z" fill="url(#paint31_linear_29_8)"/>
<path d="M-4.09101 8.27158L-4.20898 8.40234L13.9728 18.2836L14.0907 18.1528L-4.09101 8.27158Z" fill="url(#paint32_linear_29_8)"/>
<path d="M-4.01093 8.18173L-4.12891 8.3125L14.0528 18.1937L14.1708 18.0629L-4.01093 8.18173Z" fill="url(#paint33_linear_29_8)"/>
<path d="M-3.93281 8.09677L-4.05078 8.22754L14.131 18.1088L14.2489 17.978L-3.93281 8.09677Z" fill="url(#paint34_linear_29_8)"/>
<path d="M-3.85468 8.00986L-3.97266 8.14062L14.2091 18.0218L14.3271 17.8911L-3.85468 8.00986Z" fill="url(#paint35_linear_29_8)"/>
<path d="M-3.77461 7.92197L-3.89258 8.05273L14.2892 17.9339L14.4071 17.8032L-3.77461 7.92197Z" fill="url(#paint36_linear_29_8)"/>
<path d="M-3.69648 7.83505L-3.81445 7.96582L14.3673 17.847L14.4853 17.7163L-3.69648 7.83505Z" fill="url(#paint37_linear_29_8)"/>
<path d="M-3.61836 7.74814L-3.73633 7.87891L14.4454 17.7601L14.5634 17.6294L-3.61836 7.74814Z" fill="url(#paint38_linear_29_8)"/>
<path d="M-3.53828 7.65927L-3.65625 7.79004L14.5255 17.6713L14.6435 17.5405L-3.53828 7.65927Z" fill="url(#paint39_linear_29_8)"/>
<path d="M-3.46211 7.57431L-3.58008 7.70508L14.6017 17.5863L14.7196 17.4555L-3.46211 7.57431Z" fill="url(#paint40_linear_29_8)"/>
<path d="M-3.38203 7.48642L-3.5 7.61719L14.6817 17.4984L14.7997 17.3676L-3.38203 7.48642Z" fill="url(#paint41_linear_29_8)"/>
<path d="M-3.3039 7.39951L-3.42188 7.53027L14.7599 17.4115L14.8778 17.2807L-3.3039 7.39951Z" fill="url(#paint42_linear_29_8)"/>
<path d="M-3.22578 7.31259L-3.34375 7.44336L14.838 17.3246L14.956 17.1938L-3.22578 7.31259Z" fill="url(#paint43_linear_29_8)"/>
<path d="M-3.1457 7.22372L-3.26367 7.35449L14.9181 17.2357L15.036 17.1049L-3.1457 7.22372Z" fill="url(#paint44_linear_29_8)"/>
<path d="M-3.06757 7.13583L-3.18555 7.2666L14.9962 17.1478L15.1142 17.017L-3.06757 7.13583Z" fill="url(#paint45_linear_29_8)"/>
<path d="M-2.98945 7.05087L-3.10742 7.18164L15.0743 17.0629L15.1923 16.9321L-2.98945 7.05087Z" fill="url(#paint46_linear_29_8)"/>
<path d="M-2.91132 6.96396L-3.0293 7.09473L15.1524 16.9759L15.2704 16.8452L-2.91132 6.96396Z" fill="url(#paint47_linear_29_8)"/>
<path d="M-2.83125 6.87607L-2.94922 7.00684L15.2325 16.888L15.3505 16.7573L-2.83125 6.87607Z" fill="url(#paint48_linear_29_8)"/>
<path d="M-2.75312 6.78915L-2.87109 6.91992L15.3106 16.8011L15.4286 16.6704L-2.75312 6.78915Z" fill="url(#paint49_linear_29_8)"/>
<path d="M-2.675 6.70029L-2.79297 6.83105L15.3888 16.7123L15.5067 16.5815L-2.675 6.70029Z" fill="url(#paint50_linear_29_8)"/>
<path d="M-2.59687 6.61435L-2.71484 6.74512L15.4669 16.6263L15.5849 16.4956L-2.59687 6.61435Z" fill="url(#paint51_linear_29_8)"/>
<path d="M-2.51878 6.52742L-2.63672 6.6582L15.5472 16.537L15.6652 16.4062L-2.51878 6.52742Z" fill="url(#paint52_linear_29_8)"/>
<path d="M-2.43867 6.44052L-2.55664 6.57129L15.6251 16.4525L15.7431 16.3217L-2.43867 6.44052Z" fill="url(#paint53_linear_29_8)"/>
<path d="M-2.36057 6.35261L-2.47852 6.4834L15.7054 16.3621L15.8234 16.2314L-2.36057 6.35261Z" fill="url(#paint54_linear_29_8)"/>
<path d="M-2.28245 6.2657L-2.40039 6.39648L15.7836 16.2752L15.9015 16.1444L-2.28245 6.2657Z" fill="url(#paint55_linear_29_8)"/>
<path d="M-2.20234 6.17783L-2.32031 6.30859L15.8614 16.1898L15.9794 16.059L-2.20234 6.17783Z" fill="url(#paint56_linear_29_8)"/>
<path d="M-2.12424 6.0909L-2.24219 6.22168L15.9418 16.1004L16.0597 15.9696L-2.12424 6.0909Z" fill="url(#paint57_linear_29_8)"/>
<path d="M-2.04612 6.00398L-2.16406 6.13477L16.0199 16.0135L16.1378 15.8827L-2.04612 6.00398Z" fill="url(#paint58_linear_29_8)"/>
<path d="M-1.96797 5.91708L-2.08594 6.04785L16.0958 15.9291L16.2138 15.7983L-1.96797 5.91708Z" fill="url(#paint59_linear_29_8)"/>
<path d="M-1.88987 5.83015L-2.00781 5.96094L16.1761 15.8397L16.2941 15.7089L-1.88987 5.83015Z" fill="url(#paint60_linear_29_8)"/>
<path d="M-1.80976 5.74228L-1.92773 5.87305L16.254 15.7543L16.372 15.6235L-1.80976 5.74228Z" fill="url(#paint61_linear_29_8)"/>
<path d="M-1.73164 5.65439L-1.84961 5.78516L16.3321 15.6664L16.4501 15.5356L-1.73164 5.65439Z" fill="url(#paint62_linear_29_8)"/>
<path d="M-1.65354 5.56843L-1.77148 5.69922L16.4125 15.578L16.5304 15.4472L-1.65354 5.56843Z" fill="url(#paint63_linear_29_8)"/>
<path d="M-1.57343 5.48154L-1.69141 5.6123L16.4903 15.4935L16.6083 15.3628L-1.57343 5.48154Z" fill="url(#paint64_linear_29_8)"/>
<path d="M-1.49531 5.39462L-1.61328 5.52539L16.5685 15.4066L16.6864 15.2758L-1.49531 5.39462Z" fill="url(#paint65_linear_29_8)"/>
<path d="M-1.41721 5.30672L-1.53516 5.4375L16.6488 15.3162L16.7667 15.1855L-1.41721 5.30672Z" fill="url(#paint66_linear_29_8)"/>
<path d="M-1.33711 5.21884L-1.45508 5.34961L16.7267 15.2308L16.8446 15.1001L-1.33711 5.21884Z" fill="url(#paint67_linear_29_8)"/>
<path d="M-1.25898 5.13193L-1.37695 5.2627L16.8048 15.1439L16.9228 15.0131L-1.25898 5.13193Z" fill="url(#paint68_linear_29_8)"/>
<path d="M-1.18089 5.045L-1.29883 5.17578L16.8851 15.0545L17.0031 14.9237L-1.18089 5.045Z" fill="url(#paint69_linear_29_8)"/>
<path d="M-1.10273 4.95908L-1.2207 5.08984L16.961 14.9711L17.079 14.8403L-1.10273 4.95908Z" fill="url(#paint70_linear_29_8)"/>
<path d="M-1.02464 4.87117L-1.14258 5.00195L17.0414 14.8807L17.1593 14.7499L-1.02464 4.87117Z" fill="url(#paint71_linear_29_8)"/>
<path d="M-0.946511 4.78426L-1.06445 4.91504L17.1195 14.7938L17.2374 14.663L-0.946511 4.78426Z" fill="url(#paint72_linear_29_8)"/>
<path d="M-0.866402 4.69638L-0.984375 4.82715L17.1974 14.7084L17.3153 14.5776L-0.866402 4.69638Z" fill="url(#paint73_linear_29_8)"/>
<path d="M-0.788278 4.60947L-0.90625 4.74023L17.2755 14.6214L17.3935 14.4907L-0.788278 4.60947Z" fill="url(#paint74_linear_29_8)"/>
<path d="M-0.710182 4.52254L-0.828125 4.65332L17.3558 14.5321L17.4738 14.4013L-0.710182 4.52254Z" fill="url(#paint75_linear_29_8)"/>
<path d="M-0.630074 4.43564L-0.748047 4.56641L17.4337 14.4476L17.5517 14.3169L-0.630074 4.43564Z" fill="url(#paint76_linear_29_8)"/>
<path d="M-0.551979 4.34871L-0.669922 4.47949L17.514 14.3582L17.632 14.2275L-0.551979 4.34871Z" fill="url(#paint77_linear_29_8)"/>
<path d="M-0.473854 4.26082L-0.591797 4.3916L17.5922 14.2704L17.7101 14.1396L-0.473854 4.26082Z" fill="url(#paint78_linear_29_8)"/>
<path d="M-0.393747 4.17294L-0.511719 4.30371L17.67 14.1849L17.788 14.0542L-0.393747 4.17294Z" fill="url(#paint79_linear_29_8)"/>
<path d="M-0.317604 4.08699L-0.435547 4.21777L17.7484 14.0965L17.8664 13.9657L-0.317604 4.08699Z" fill="url(#paint80_linear_29_8)"/>
<path d="M-0.237496 4.00009L-0.355469 4.13086L17.8263 14.0121L17.9442 13.8813L-0.237496 4.00009Z" fill="url(#paint81_linear_29_8)"/>
<path d="M-0.159372 3.91318L-0.277344 4.04395L17.9044 13.9252L18.0224 13.7944L-0.159372 3.91318Z" fill="url(#paint82_linear_29_8)"/>
<path d="M-0.0812762 3.82527L-0.199219 3.95605L17.9847 13.8348L18.1027 13.704L-0.0812762 3.82527Z" fill="url(#paint83_linear_29_8)"/>
<path d="M-0.00116812 3.7374L-0.119141 3.86816L18.0626 13.7494L18.1806 13.6186L-0.00116812 3.7374Z" fill="url(#paint84_linear_29_8)"/>
<path d="M0.0769563 3.65048L-0.0410156 3.78125L18.1407 13.6625L18.2587 13.5317L0.0769563 3.65048Z" fill="url(#paint85_linear_29_8)"/>
<path d="M0.155052 3.56355L0.0371094 3.69434L18.2211 13.5731L18.339 13.4423L0.155052 3.56355Z" fill="url(#paint86_linear_29_8)"/>
<path d="M0.235159 3.47665L0.117188 3.60742L18.2989 13.4886L18.4169 13.3579L0.235159 3.47665Z" fill="url(#paint87_linear_29_8)"/>
<path d="M0.311302 3.38972L0.193359 3.52051L18.3773 13.3993L18.4953 13.2685L0.311302 3.38972Z" fill="url(#paint88_linear_29_8)"/>
<path d="M0.391409 3.30283L0.273438 3.43359L18.4552 13.3148L18.5732 13.184L0.391409 3.30283Z" fill="url(#paint89_linear_29_8)"/>
<path d="M0.469534 3.21396L0.351562 3.34473L18.5333 13.2259L18.6513 13.0952L0.469534 3.21396Z" fill="url(#paint90_linear_29_8)"/>
<path d="M0.547631 3.128L0.429688 3.25879L18.6136 13.1375L18.7316 13.0068L0.547631 3.128Z" fill="url(#paint91_linear_29_8)"/>
<path d="M0.627738 3.04111L0.509766 3.17188L18.6915 13.0531L18.8095 12.9223L0.627738 3.04111Z" fill="url(#paint92_linear_29_8)"/>
<path d="M0.705863 2.95419L0.587891 3.08496L18.7696 12.9662L18.8876 12.8354L0.705863 2.95419Z" fill="url(#paint93_linear_29_8)"/>
<path d="M0.783959 2.86629L0.666016 2.99707L18.85 12.8758L18.9679 12.745L0.783959 2.86629Z" fill="url(#paint94_linear_29_8)"/>
<path d="M0.864066 2.78037L0.746094 2.91113L18.9278 12.7923L19.0458 12.6616L0.864066 2.78037Z" fill="url(#paint95_linear_29_8)"/>
<path d="M0.942191 2.6915L0.824219 2.82227L19.006 12.7035L19.1239 12.5727L0.942191 2.6915Z" fill="url(#paint96_linear_29_8)"/>
<path d="M1.02032 2.60458L0.902344 2.73535L19.0841 12.6166L19.2021 12.4858L1.02032 2.60458Z" fill="url(#paint97_linear_29_8)"/>
<path d="M1.10039 2.51767L0.982422 2.64844L19.1642 12.5297L19.2821 12.3989L1.10039 2.51767Z" fill="url(#paint98_linear_29_8)"/>
<path d="M1.17852 2.43076L1.06055 2.56152L19.2423 12.4427L19.3603 12.312L1.17852 2.43076Z" fill="url(#paint99_linear_29_8)"/>
<path d="M1.25664 2.34384L1.13867 2.47461L19.3204 12.3558L19.4384 12.2251L1.25664 2.34384Z" fill="url(#paint100_linear_29_8)"/>
<path d="M1.33672 2.25693L1.21875 2.3877L19.4005 12.2689L19.5185 12.1381L1.33672 2.25693Z" fill="url(#paint101_linear_29_8)"/>
<path d="M1.41289 2.16806L1.29492 2.29883L19.4767 12.18L19.5946 12.0493L1.41289 2.16806Z" fill="url(#paint102_linear_29_8)"/>
<path d="M1.49297 2.0831L1.375 2.21387L19.5567 12.0951L19.6747 11.9643L1.49297 2.0831Z" fill="url(#paint103_linear_29_8)"/>
<path d="M1.5711 1.99521L1.45312 2.12598L19.6349 12.0072L19.7528 11.8764L1.5711 1.99521Z" fill="url(#paint104_linear_29_8)"/>
<path d="M1.64922 1.90732L1.53125 2.03809L19.713 11.9193L19.831 11.7885L1.64922 1.90732Z" fill="url(#paint105_linear_29_8)"/>
<path d="M1.7293 1.82138L1.61133 1.95215L19.7931 11.8334L19.911 11.7026L1.7293 1.82138Z" fill="url(#paint106_linear_29_8)"/>
<path d="M1.80743 1.73251L1.68945 1.86328L19.8712 11.7445L19.9892 11.6137L1.80743 1.73251Z" fill="url(#paint107_linear_29_8)"/>
<path d="M1.88555 1.6456L1.76758 1.77637L19.9493 11.6576L20.0673 11.5268L1.88555 1.6456Z" fill="url(#paint108_linear_29_8)"/>
<path d="M1.96368 1.55966L1.8457 1.69043L20.0274 11.5716L20.1454 11.4409L1.96368 1.55966Z" fill="url(#paint109_linear_29_8)"/>
<path d="M2.04375 1.47177L1.92578 1.60254L20.1075 11.4838L20.2255 11.353L2.04375 1.47177Z" fill="url(#paint110_linear_29_8)"/>
<path d="M2.12188 1.38486L2.00391 1.51562L20.1856 11.3968L20.3036 11.2661L2.12188 1.38486Z" fill="url(#paint111_linear_29_8)"/>
<path d="M2.2 1.29794L2.08203 1.42871L20.2638 11.3099L20.3817 11.1792L2.2 1.29794Z" fill="url(#paint112_linear_29_8)"/>
<path d="M2.27813 1.20908L2.16016 1.33984L20.3419 11.2211L20.4599 11.0903L2.27813 1.20908Z" fill="url(#paint113_linear_29_8)"/>
<path d="M2.35821 1.12411L2.24023 1.25488L20.422 11.1361L20.5399 11.0053L2.35821 1.12411Z" fill="url(#paint114_linear_29_8)"/>
<path d="M2.43633 1.0372L2.31836 1.16797L20.5001 11.0492L20.6181 10.9184L2.43633 1.0372Z" fill="url(#paint115_linear_29_8)"/>
<path d="M2.51446 0.949311L2.39648 1.08008L20.5782 10.9613L20.6962 10.8305L2.51446 0.949311Z" fill="url(#paint116_linear_29_8)"/>
<path d="M2.59454 0.862396L2.47656 0.993164L20.6583 10.8744L20.7763 10.7436L2.59454 0.862396Z" fill="url(#paint117_linear_29_8)"/>
<path d="M2.67266 0.775482L2.55469 0.90625L20.7364 10.7875L20.8544 10.6567L2.67266 0.775482Z" fill="url(#paint118_linear_29_8)"/>
<path d="M2.75078 0.686615L2.63281 0.817383L20.8146 10.6986L20.9325 10.5678L2.75078 0.686615Z" fill="url(#paint119_linear_29_8)"/>
<path d="M2.82891 0.599701L2.71094 0.730469L20.8927 10.6117L21.0107 10.4809L2.82891 0.599701Z" fill="url(#paint120_linear_29_8)"/>
<path d="M2.90703 0.512787L2.78906 0.643555L20.9708 10.5248L21.0888 10.394L2.90703 0.512787Z" fill="url(#paint121_linear_29_8)"/>
<path d="M2.98711 0.425872L2.86914 0.556641L21.0509 10.4379L21.1689 10.3071L2.98711 0.425872Z" fill="url(#paint122_linear_29_8)"/>
<path d="M3.06326 0.338943L2.94531 0.469727L21.1293 10.3485L21.2472 10.2177L3.06326 0.338943Z" fill="url(#paint123_linear_29_8)"/>
<path d="M3.14336 0.252045L3.02539 0.382812L21.2071 10.264L21.3251 10.1333L3.14336 0.252045Z" fill="url(#paint124_linear_29_8)"/>
<path d="M3.22149 0.163178L3.10352 0.293945L21.2853 10.1752L21.4032 10.0444L3.22149 0.163178Z" fill="url(#paint125_linear_29_8)"/>
<path d="M3.29958 0.0772243L3.18164 0.208008L21.3656 10.0868L21.4835 9.95597L3.29958 0.0772243Z" fill="url(#paint126_linear_29_8)"/>
<path d="M3.37969 -0.00967441L3.26172 0.121094L21.4435 10.0023L21.5614 9.87154L3.37969 -0.00967441Z" fill="url(#paint127_linear_29_8)"/>
<path d="M3.45782 -0.0965879L3.33984 0.0341797L21.5216 9.91539L21.6396 9.78463L3.45782 -0.0965879Z" fill="url(#paint128_linear_29_8)"/>
<path d="M3.53396 -0.184494L3.41602 -0.0537109L21.6 9.82504L21.7179 9.69425L3.53396 -0.184494Z" fill="url(#paint129_linear_29_8)"/>
<path d="M3.61407 -0.272369L3.49609 -0.141602L21.6778 9.73961L21.7958 9.60884L3.61407 -0.272369Z" fill="url(#paint130_linear_29_8)"/>
<path d="M3.69414 -0.359283L3.57617 -0.228516L21.7579 9.6527L21.8759 9.52193L3.69414 -0.359283Z" fill="url(#paint131_linear_29_8)"/>
<path d="M3.77029 -0.445237L3.65234 -0.314453L21.8363 9.5643L21.9542 9.43351L3.77029 -0.445237Z" fill="url(#paint132_linear_29_8)"/>
<path d="M3.85039 -0.533111L3.73242 -0.402344L21.9142 9.47887L22.0321 9.3481L3.85039 -0.533111Z" fill="url(#paint133_linear_29_8)"/>
<path d="M3.92849 -0.620041L3.81055 -0.489258L21.9945 9.38949L22.1124 9.25871L3.92849 -0.620041Z" fill="url(#paint134_linear_29_8)"/>
<path d="M4.00661 -0.706956L3.88867 -0.576172L22.0726 9.30258L22.1906 9.17179L4.00661 -0.706956Z" fill="url(#paint135_linear_29_8)"/>
<path d="M4.08672 -0.79483L3.96875 -0.664062L22.1505 9.21715L22.2685 9.08638L4.08672 -0.79483Z" fill="url(#paint136_linear_29_8)"/>
<path d="M4.16286 -0.880784L4.04492 -0.75L22.2289 9.12875L22.3468 8.99797L4.16286 -0.880784Z" fill="url(#paint137_linear_29_8)"/>
<path d="M4.24493 -0.967682L4.12695 -0.836914L22.3087 9.0443L22.4267 8.91353L4.24493 -0.967682Z" fill="url(#paint138_linear_29_8)"/>
<path d="M4.32305 -1.05557L4.20508 -0.924805L22.3868 8.95641L22.5048 8.82564L4.32305 -1.05557Z" fill="url(#paint139_linear_29_8)"/>
<path d="M4.39919 -1.1425L4.28125 -1.01172L22.4652 8.86703L22.5832 8.73625L4.39919 -1.1425Z" fill="url(#paint140_linear_29_8)"/>
<path d="M4.47927 -1.22942L4.36133 -1.09863L22.5453 8.78012L22.6632 8.64933L4.47927 -1.22942Z" fill="url(#paint141_linear_29_8)"/>
<path d="M4.55938 -1.31827L4.44141 -1.1875L22.6231 8.69371L22.7411 8.56294L4.55938 -1.31827Z" fill="url(#paint142_linear_29_8)"/>
<path d="M4.63552 -1.40422L4.51758 -1.27344L22.7015 8.60531L22.8195 8.47453L4.63552 -1.40422Z" fill="url(#paint143_linear_29_8)"/>
<path d="M4.71758 -1.49112L4.59961 -1.36035L22.7813 8.52086L22.8993 8.39009L4.71758 -1.49112Z" fill="url(#paint144_linear_29_8)"/>
<path d="M4.79372 -1.57805L4.67578 -1.44727L22.8597 8.43148L22.9777 8.3007L4.79372 -1.57805Z" fill="url(#paint145_linear_29_8)"/>
<path d="M4.87185 -1.66496L4.75391 -1.53418L22.9379 8.34457L23.0558 8.21379L4.87185 -1.66496Z" fill="url(#paint146_linear_29_8)"/>
<path d="M4.95196 -1.75381L4.83398 -1.62305L23.0157 8.25817L23.1337 8.1274L4.95196 -1.75381Z" fill="url(#paint147_linear_29_8)"/>
<path d="M5.03008 -1.84073L4.91211 -1.70996L23.0938 8.17125L23.2118 8.04048L5.03008 -1.84073Z" fill="url(#paint148_linear_29_8)"/>
<path d="M5.10818 -1.92668L4.99023 -1.7959L23.1742 8.08285L23.2921 7.95207L5.10818 -1.92668Z" fill="url(#paint149_linear_29_8)"/>
<path d="M5.18828 -2.01358L5.07031 -1.88281L23.2521 7.9984L23.37 7.86763L5.18828 -2.01358Z" fill="url(#paint150_linear_29_8)"/>
<path d="M5.26443 -2.10149L5.14648 -1.9707L23.3304 7.90805L23.4484 7.77726L5.26443 -2.10149Z" fill="url(#paint151_linear_29_8)"/>
<path d="M5.34255 -2.1884L5.22461 -2.05762L23.4086 7.82113L23.5265 7.69035L5.34255 -2.1884Z" fill="url(#paint152_linear_29_8)"/>
<path d="M5.42266 -2.27628L5.30469 -2.14551L23.4864 7.73571L23.6044 7.60494L5.42266 -2.27628Z" fill="url(#paint153_linear_29_8)"/>
<path d="M5.50274 -2.36319L5.38477 -2.23242L23.5665 7.64879L23.6845 7.51802L5.50274 -2.36319Z" fill="url(#paint154_linear_29_8)"/>
<path d="M5.58086 -2.4501L5.46289 -2.31934L23.6446 7.56188L23.7626 7.43111L5.58086 -2.4501Z" fill="url(#paint155_linear_29_8)"/>
<path d="M5.65899 -2.53799L5.54102 -2.40723L23.7228 7.47399L23.8407 7.34322L5.65899 -2.53799Z" fill="url(#paint156_linear_29_8)"/>
<path d="M5.73708 -2.62395L5.61914 -2.49316L23.8031 7.38558L23.921 7.2548L5.73708 -2.62395Z" fill="url(#paint157_linear_29_8)"/>
<path d="M5.81521 -2.71184L5.69727 -2.58105L23.8812 7.29769L23.9992 7.16691L5.81521 -2.71184Z" fill="url(#paint158_linear_29_8)"/>
<path d="M5.89532 -2.79874L5.77734 -2.66797L23.9591 7.21324L24.0771 7.08248L5.89532 -2.79874Z" fill="url(#paint159_linear_29_8)"/>
<path d="M5.97146 -2.88567L5.85352 -2.75488L24.0375 7.12387L24.1554 6.99308L5.97146 -2.88567Z" fill="url(#paint160_linear_29_8)"/>
<path d="M6.05352 -2.97256L5.93555 -2.8418L24.1173 7.03942L24.2353 6.90865L6.05352 -2.97256Z" fill="url(#paint161_linear_29_8)"/>
<path d="M6.12966 -3.0595L6.01172 -2.92871L24.1957 6.95004L24.3136 6.81925L6.12966 -3.0595Z" fill="url(#paint162_linear_29_8)"/>
<path d="M6.20779 -3.14739L6.08984 -3.0166L24.2738 6.86215L24.3917 6.73136L6.20779 -3.14739Z" fill="url(#paint163_linear_29_8)"/>
<path d="M6.28591 -3.2343L6.16797 -3.10352L24.3519 6.77523L24.4699 6.64445L6.28591 -3.2343Z" fill="url(#paint164_linear_29_8)"/>
<path d="M6.36602 -3.32217L6.24805 -3.19141L24.4298 6.68981L24.5478 6.55904L6.36602 -3.32217Z" fill="url(#paint165_linear_29_8)"/>
<path d="M6.44411 -3.4091L6.32617 -3.27832L24.5101 6.60043L24.6281 6.46965L6.44411 -3.4091Z" fill="url(#paint166_linear_29_8)"/>
<path d="M8.11457 -5.25885L6.40625 -3.36523L24.588 6.51598L26.2963 4.62236L8.11457 -5.25885Z" fill="url(#paint167_linear_29_8)"/>
</g>
<path fill-rule="evenodd" clip-rule="evenodd" d="M5.0706 15.7603C4.44215 14.6091 4.98978 13.0612 7.18252 10.6504C6.18424 11.47 3.66539 13.1598 1.47266 12.0871C2.3315 12.9237 3.68346 12.9945 4.95968 12.5806C4.39367 13.5923 4.12841 14.8453 5.0706 15.76V15.7603Z" fill="#0F527A"/>
<mask id="mask1_29_8" style="mask-type:luminance" maskUnits="userSpaceOnUse" x="1" y="10" width="7" height="6">
<path d="M5.0706 15.7603C4.44215 14.6091 4.98978 13.0612 7.18252 10.6504C6.18424 11.47 3.66539 13.1598 1.47266 12.0871C2.3315 12.9237 3.68346 12.9945 4.95968 12.5806C4.39367 13.5923 4.12841 14.8453 5.0706 15.76V15.7603Z" fill="white"/>
</mask>
<g mask="url(#mask1_29_8)">
<path fill-rule="evenodd" clip-rule="evenodd" d="M0.368138 13.4277L0.367188 13.4285L5.06894 15.762L5.06958 15.7613L0.368138 13.4277Z" fill="#0F527A"/>
<path d="M0.38604 13.4062L0.359375 13.4385L5.0589 15.7748L5.08557 15.7425L0.38604 13.4062Z" fill="#0F527A"/>
<path d="M0.401629 13.3856L0.375 13.418L5.07715 15.7511L5.10378 15.7188L0.401629 13.3856Z" fill="#0F527A"/>
<path d="M0.421153 13.3642L0.394531 13.3965L5.09721 15.729L5.12383 15.6966L0.421153 13.3642Z" fill="#0F527A"/>
<path d="M0.436771 13.3436L0.410156 13.376L5.11336 15.7078L5.13997 15.6755L0.436771 13.3436Z" fill="#0F527A"/>
<path d="M0.456309 13.3202L0.429688 13.3525L5.13236 15.685L5.15898 15.6527L0.456309 13.3202Z" fill="#0F527A"/>
<path d="M0.475855 13.2978L0.449219 13.3301L5.15084 15.6638L5.17748 15.6315L0.475855 13.2978Z" fill="#0F527A"/>
<path d="M0.493455 13.2753L0.466797 13.3076L5.16685 15.6433L5.19351 15.611L0.493455 13.2753Z" fill="#0F527A"/>
<path d="M0.511011 13.2548L0.484375 13.2871L5.186 15.6209L5.21264 15.5885L0.511011 13.2548Z" fill="#0F527A"/>
<path d="M0.528589 13.2323L0.501953 13.2646L5.20358 15.5984L5.23022 15.5661L0.528589 13.2323Z" fill="#0F527A"/>
<path d="M0.546167 13.2108L0.519531 13.2432L5.22116 15.5769L5.2478 15.5446L0.546167 13.2108Z" fill="#0F527A"/>
<path d="M0.563746 13.1894L0.537109 13.2217L5.23874 15.5554L5.26537 15.5231L0.563746 13.1894Z" fill="#0F527A"/>
<path d="M0.581338 13.1669L0.554688 13.1992L5.25527 15.5342L5.28192 15.5019L0.581338 13.1669Z" fill="#0F527A"/>
<path d="M0.59888 13.1474L0.572266 13.1797L5.27547 15.5115L5.30208 15.4792L0.59888 13.1474Z" fill="#0F527A"/>
<path d="M0.616465 13.1268L0.589844 13.1592L5.29252 15.4917L5.31914 15.4593L0.616465 13.1268Z" fill="#0F527A"/>
<path d="M0.634036 13.1054L0.607422 13.1377L5.31062 15.4695L5.33724 15.4372L0.634036 13.1054Z" fill="#0F527A"/>
<path d="M0.65359 13.0819L0.626953 13.1143L5.32858 15.448L5.35522 15.4157L0.65359 13.0819Z" fill="#0F527A"/>
<path d="M0.671189 13.0605L0.644531 13.0928L5.34458 15.4284L5.37124 15.3961L0.671189 13.0605Z" fill="#0F527A"/>
<path d="M0.688746 13.039L0.662109 13.0713L5.36374 15.405L5.39037 15.3727L0.688746 13.039Z" fill="#0F527A"/>
<path d="M0.706324 13.0165L0.679688 13.0488L5.38131 15.3826L5.40795 15.3503L0.706324 13.0165Z" fill="#0F527A"/>
<path d="M0.723909 12.996L0.697266 13.0283L5.39837 15.3627L5.42501 15.3304L0.723909 12.996Z" fill="#0F527A"/>
<path d="M0.741487 12.9735L0.714844 13.0059L5.41594 15.3402L5.44259 15.3079L0.741487 12.9735Z" fill="#0F527A"/>
<path d="M0.75908 12.9521L0.732422 12.9844L5.43247 15.32L5.45913 15.2877L0.75908 12.9521Z" fill="#0F527A"/>
<path d="M0.776629 12.9315L0.75 12.9639L5.45215 15.297L5.47878 15.2647L0.776629 12.9315Z" fill="#0F527A"/>
<path d="M0.7942 12.91L0.767578 12.9424L5.47025 15.2749L5.49687 15.2425L0.7942 12.91Z" fill="#0F527A"/>
<path d="M0.811771 12.8895L0.785156 12.9219L5.48836 15.2537L5.51497 15.2214L0.811771 12.8895Z" fill="#0F527A"/>
<path d="M0.829356 12.8671L0.802734 12.8994L5.50541 15.2319L5.53203 15.1996L0.829356 12.8671Z" fill="#0F527A"/>
<path d="M0.848909 12.8446L0.822266 12.877L5.52337 15.2113L5.55001 15.179L0.848909 12.8446Z" fill="#0F527A"/>
<path d="M0.866509 12.8222L0.839844 12.8545L5.53937 15.1908L5.56603 15.1585L0.866509 12.8222Z" fill="#0F527A"/>
<path d="M0.884058 12.8007L0.857422 12.833L5.55905 15.1668L5.58569 15.1344L0.884058 12.8007Z" fill="#0F527A"/>
<path d="M0.901651 12.7802L0.875 12.8125L5.57558 15.1475L5.60223 15.1152L0.901651 12.7802Z" fill="#0F527A"/>
<path d="M0.919214 12.7577L0.892578 12.79L5.59421 15.1238L5.62084 15.0915L0.919214 12.7577Z" fill="#0F527A"/>
<path d="M0.936792 12.7362L0.910156 12.7686L5.61178 15.1023L5.63842 15.07L0.936792 12.7362Z" fill="#0F527A"/>
<path d="M0.956345 12.7148L0.929688 12.7471L5.62974 15.0827L5.6564 15.0504L0.956345 12.7148Z" fill="#0F527A"/>
<path d="M0.971941 12.6942L0.945312 12.7266L5.64746 15.0597L5.67409 15.0273L0.971941 12.6942Z" fill="#0F527A"/>
<path d="M0.989505 12.6727L0.962891 12.7051L5.66609 15.0369L5.6927 15.0046L0.989505 12.6727Z" fill="#0F527A"/>
<path d="M1.00709 12.6513L0.980469 12.6836L5.68314 15.0161L5.70977 14.9837L1.00709 12.6513Z" fill="#0F527A"/>
<path d="M1.02466 12.6307L0.998047 12.6631L5.70125 14.9949L5.72786 14.9626L1.02466 12.6307Z" fill="#0F527A"/>
<path d="M1.04424 12.6064L1.01758 12.6387L5.7171 14.975L5.74377 14.9427L1.04424 12.6064Z" fill="#0F527A"/>
<path d="M1.06179 12.5839L1.03516 12.6162L5.73678 14.95L5.76342 14.9176L1.06179 12.5839Z" fill="#0F527A"/>
<path d="M1.08134 12.5624L1.05469 12.5947L5.75526 14.9298L5.78191 14.8974L1.08134 12.5624Z" fill="#0F527A"/>
<path d="M1.09891 12.5409L1.07227 12.5732L5.77337 14.9076L5.80001 14.8753L1.09891 12.5409Z" fill="#0F527A"/>
<path d="M1.11649 12.5194L1.08984 12.5518L5.79094 14.8861L5.81759 14.8538L1.11649 12.5194Z" fill="#0F527A"/>
<path d="M1.13407 12.497L1.10742 12.5293L5.808 14.8643L5.83465 14.832L1.13407 12.497Z" fill="#0F527A"/>
<path d="M1.15167 12.4765L1.125 12.5088L5.82452 14.8451L5.85119 14.8128L1.15167 12.4765Z" fill="#0F527A"/>
<path d="M1.16724 12.4569L1.14062 12.4893L5.84383 14.8211L5.87044 14.7888L1.16724 12.4569Z" fill="#0F527A"/>
<path d="M1.18482 12.4354L1.1582 12.4678L5.86088 14.8003L5.8875 14.7679L1.18482 12.4354Z" fill="#0F527A"/>
<path d="M1.20436 12.414L1.17773 12.4463L5.88041 14.7788L5.90703 14.7464L1.20436 12.414Z" fill="#0F527A"/>
<path d="M1.22196 12.3905L1.19531 12.4229L5.89641 14.7572L5.92306 14.7249L1.22196 12.3905Z" fill="#0F527A"/>
<path d="M1.24149 12.3671L1.21484 12.3994L5.91542 14.7344L5.94207 14.7021L1.24149 12.3671Z" fill="#0F527A"/>
<path d="M1.25711 12.3485L1.23047 12.3809L5.93157 14.7152L5.95821 14.6829L1.25711 12.3485Z" fill="#0F527A"/>
<path d="M1.27664 12.3261L1.25 12.3584L5.95163 14.6922L5.97826 14.6598L1.27664 12.3261Z" fill="#0F527A"/>
<path d="M1.29422 12.3056L1.26758 12.3379L5.96868 14.6723L5.99532 14.64L1.29422 12.3056Z" fill="#0F527A"/>
<path d="M1.31179 12.2821L1.28516 12.3145L5.98678 14.6482L6.01342 14.6159L1.31179 12.2821Z" fill="#0F527A"/>
<path d="M1.32939 12.2597L1.30273 12.292L6.00278 14.6277L6.02944 14.5953L1.32939 12.2597Z" fill="#0F527A"/>
<path d="M1.34497 12.2411L1.31836 12.2734L6.02156 14.6053L6.04817 14.5729L1.34497 12.2411Z" fill="#0F527A"/>
<path d="M1.3645 12.2196L1.33789 12.252L6.04109 14.5838L6.0677 14.5515L1.3645 12.2196Z" fill="#0F527A"/>
<path d="M1.38208 12.1981L1.35547 12.2305L6.05867 14.5623L6.08528 14.53L1.38208 12.1981Z" fill="#0F527A"/>
<path d="M1.39966 12.1766L1.37305 12.209L6.07625 14.5408L6.10286 14.5085L1.39966 12.1766Z" fill="#0F527A"/>
<path d="M1.41923 12.1513L1.39258 12.1836L6.09315 14.5186L6.11981 14.4863L1.41923 12.1513Z" fill="#0F527A"/>
<path d="M1.4368 12.1308L1.41016 12.1631L6.11126 14.4975L6.1379 14.4652L1.4368 12.1308Z" fill="#0F527A"/>
<path d="M1.45438 12.1093L1.42773 12.1416L6.12884 14.476L6.15548 14.4437L1.45438 12.1093Z" fill="#0F527A"/>
<path d="M1.47195 12.0878L1.44531 12.1201L6.14694 14.4539L6.17358 14.4215L1.47195 12.0878Z" fill="#0F527A"/>
<path d="M1.48953 12.0653L1.46289 12.0977L6.16452 14.4314L6.19115 14.3991L1.48953 12.0653Z" fill="#0F527A"/>
<path d="M1.50907 12.0429L1.48242 12.0752L6.183 14.4102L6.20965 14.3779L1.50907 12.0429Z" fill="#0F527A"/>
<path d="M1.52471 12.0233L1.49805 12.0557L6.1981 14.3913L6.22476 14.359L1.52471 12.0233Z" fill="#0F527A"/>
<path d="M1.54224 12.0028L1.51562 12.0352L6.21883 14.367L6.24544 14.3347L1.54224 12.0028Z" fill="#0F527A"/>
<path d="M1.55983 11.9813L1.5332 12.0137L6.23535 14.3468L6.26198 14.3145L1.55983 11.9813Z" fill="#0F527A"/>
<path d="M1.5774 11.9608L1.55078 11.9932L6.25346 14.3256L6.28008 14.2933L1.5774 11.9608Z" fill="#0F527A"/>
<path d="M1.59498 11.9384L1.56836 11.9707L6.27104 14.3032L6.29766 14.2708L1.59498 11.9384Z" fill="#0F527A"/>
<path d="M1.61454 11.914L1.58789 11.9463L6.28847 14.2813L6.31512 14.249L1.61454 11.914Z" fill="#0F527A"/>
<path d="M1.63212 11.8935L1.60547 11.9258L6.30605 14.2608L6.3327 14.2285L1.63212 11.8935Z" fill="#0F527A"/>
<path d="M1.64968 11.872L1.62305 11.9043L6.32467 14.238L6.35131 14.2057L1.64968 11.872Z" fill="#0F527A"/>
<path d="M1.66727 11.8515L1.64062 11.8838L6.34173 14.2182L6.36837 14.1859L1.66727 11.8515Z" fill="#0F527A"/>
<path d="M1.68485 11.829L1.6582 11.8613L6.3593 14.1957L6.38595 14.1634L1.68485 11.829Z" fill="#0F527A"/>
<path d="M1.70439 11.8056L1.67773 11.8379L6.37831 14.1729L6.40496 14.1406L1.70439 11.8056Z" fill="#0F527A"/>
<path d="M1.71997 11.787L1.69336 11.8193L6.39656 14.1512L6.42317 14.1188L1.71997 11.787Z" fill="#0F527A"/>
<path d="M1.73756 11.7655L1.71094 11.7979L6.41361 14.1303L6.44023 14.098L1.73756 11.7655Z" fill="#0F527A"/>
<path d="M1.75513 11.744L1.72852 11.7764L6.43172 14.1082L6.45833 14.0759L1.75513 11.744Z" fill="#0F527A"/>
<path d="M1.77272 11.7225L1.74609 11.7549L6.44877 14.0874L6.47539 14.055L1.77272 11.7225Z" fill="#0F527A"/>
<path d="M1.79228 11.6972L1.76562 11.7295L6.4662 14.0645L6.49285 14.0322L1.79228 11.6972Z" fill="#0F527A"/>
<path d="M1.80985 11.6767L1.7832 11.709L6.48378 14.044L6.51043 14.0117L1.80985 11.6767Z" fill="#0F527A"/>
<path d="M1.82742 11.6571L1.80078 11.6895L6.50188 14.0238L6.52853 13.9915L1.82742 11.6571Z" fill="#0F527A"/>
<path d="M1.845 11.6337L1.81836 11.666L6.51946 14.0004L6.5461 13.9681L1.845 11.6337Z" fill="#0F527A"/>
<path d="M1.86258 11.6132L1.83594 11.6455L6.53704 13.9799L6.56368 13.9476L1.86258 11.6132Z" fill="#0F527A"/>
<path d="M1.88213 11.5907L1.85547 11.623L6.55499 13.9593L6.58166 13.927L1.88213 11.5907Z" fill="#0F527A"/>
<path d="M1.8997 11.5673L1.87305 11.5996L6.57362 13.9346L6.60027 13.9023L1.8997 11.5673Z" fill="#0F527A"/>
<path d="M1.9153 11.5487L1.88867 11.5811L6.59082 13.9142L6.61745 13.8818L1.9153 11.5487Z" fill="#0F527A"/>
<path d="M1.93286 11.5263L1.90625 11.5586L6.60945 13.8904L6.63606 13.8581L1.93286 11.5263Z" fill="#0F527A"/>
<path d="M1.9524 11.5058L1.92578 11.5381L6.62846 13.8706L6.65508 13.8382L1.9524 11.5058Z" fill="#0F527A"/>
<path d="M1.96802 11.4852L1.94141 11.5176L6.64461 13.8494L6.67122 13.8171L1.96802 11.4852Z" fill="#0F527A"/>
<path d="M1.98954 11.4599L1.96289 11.4922L6.66347 13.8272L6.69012 13.7949L1.98954 11.4599Z" fill="#0F527A"/>
<path d="M2.00515 11.4394L1.97852 11.4717L6.68014 13.8054L6.70678 13.7731L2.00515 11.4394Z" fill="#0F527A"/>
<path d="M2.02469 11.4179L1.99805 11.4502L6.69915 13.7846L6.72579 13.7523L2.02469 11.4179Z" fill="#0F527A"/>
<path d="M2.04227 11.3964L2.01562 11.4287L6.71673 13.7631L6.74337 13.7308L2.04227 11.3964Z" fill="#0F527A"/>
<path d="M2.05985 11.3749L2.0332 11.4072L6.7343 13.7416L6.76095 13.7093L2.05985 11.3749Z" fill="#0F527A"/>
<path d="M2.07743 11.3515L2.05078 11.3838L6.75136 13.7188L6.77801 13.6865L2.07743 11.3515Z" fill="#0F527A"/>
<path d="M2.095 11.331L2.06836 11.3633L6.76999 13.697L6.79662 13.6647L2.095 11.331Z" fill="#0F527A"/>
<path d="M2.1106 11.3124L2.08398 11.3447L6.78718 13.6766L6.8138 13.6442L2.1106 11.3124Z" fill="#0F527A"/>
<path d="M2.13013 11.2899L2.10352 11.3223L6.80672 13.6541L6.83333 13.6218L2.13013 11.2899Z" fill="#0F527A"/>
<path d="M2.14771 11.2694L2.12109 11.3018L6.82429 13.6336L6.85091 13.6013L2.14771 11.2694Z" fill="#0F527A"/>
<path d="M2.16728 11.245L2.14062 11.2773L6.84068 13.613L6.86733 13.5807L2.16728 11.245Z" fill="#0F527A"/>
<path d="M2.18289 11.2235L2.15625 11.2559L6.85788 13.5896L6.88451 13.5573L2.18289 11.2235Z" fill="#0F527A"/>
<path d="M2.20242 11.202L2.17578 11.2344L6.87741 13.5681L6.90404 13.5358L2.20242 11.202Z" fill="#0F527A"/>
<path d="M2.22 11.1796L2.19336 11.2119L6.89499 13.5457L6.92162 13.5133L2.22 11.1796Z" fill="#0F527A"/>
<path d="M2.23757 11.1591L2.21094 11.1914L6.91256 13.5252L6.9392 13.4928L2.23757 11.1591Z" fill="#0F527A"/>
<path d="M2.25517 11.1376L2.22852 11.1699L6.92857 13.5056L6.95522 13.4733L2.25517 11.1376Z" fill="#0F527A"/>
<path d="M2.27274 11.1142L2.24609 11.1465L6.94667 13.4815L6.97332 13.4492L2.27274 11.1142Z" fill="#0F527A"/>
<path d="M2.29029 11.0946L2.26367 11.127L6.96635 13.4594L6.99297 13.4271L2.29029 11.0946Z" fill="#0F527A"/>
<path d="M2.30786 11.0741L2.28125 11.1064L6.98445 13.4383L7.01106 13.4059L2.30786 11.0741Z" fill="#0F527A"/>
<path d="M2.32545 11.0517L2.29883 11.084L7.0015 13.4165L7.02812 13.3841L2.32545 11.0517Z" fill="#0F527A"/>
<path d="M2.34302 11.0311L2.31641 11.0635L7.01961 13.3953L7.04622 13.363L2.34302 11.0311Z" fill="#0F527A"/>
<path d="M2.3626 11.0068L2.33594 11.0391L7.03546 13.3754L7.06213 13.343L2.3626 11.0068Z" fill="#0F527A"/>
<path d="M2.38016 10.9862L2.35352 11.0186L7.05462 13.3529L7.08126 13.3206L2.38016 10.9862Z" fill="#0F527A"/>
<path d="M2.39774 10.9638L2.37109 10.9961L7.07219 13.3305L7.09884 13.2982L2.39774 10.9638Z" fill="#0F527A"/>
<path d="M2.41531 10.9423L2.38867 10.9746L7.0903 13.3084L7.11694 13.276L2.41531 10.9423Z" fill="#0F527A"/>
<path d="M2.43289 10.9208L2.40625 10.9531L7.10788 13.2869L7.13451 13.2546L2.43289 10.9208Z" fill="#0F527A"/>
<path d="M2.45244 10.8993L2.42578 10.9316L7.12583 13.2673L7.15249 13.235L2.45244 10.8993Z" fill="#0F527A"/>
<path d="M2.47 10.8769L2.44336 10.9092L7.14499 13.2429L7.17162 13.2106L2.47 10.8769Z" fill="#0F527A"/>
<path d="M2.4856 10.8583L2.45898 10.8906L7.16218 13.2225L7.1888 13.1901L2.4856 10.8583Z" fill="#0F527A"/>
<path d="M2.50319 10.8358L2.47656 10.8682L7.17871 13.2013L7.20534 13.1689L2.50319 10.8358Z" fill="#0F527A"/>
<path d="M2.52075 10.8143L2.49414 10.8467L7.19734 13.1785L7.22396 13.1462L2.52075 10.8143Z" fill="#0F527A"/>
<path d="M2.54031 10.7909L2.51367 10.8232L7.2153 13.157L7.24193 13.1247L2.54031 10.7909Z" fill="#0F527A"/>
<path d="M2.55789 10.7704L2.53125 10.8027L7.23235 13.1371L7.25899 13.1048L2.55789 10.7704Z" fill="#0F527A"/>
<path d="M2.57547 10.747L2.54883 10.7793L7.24993 13.1137L7.27657 13.0814L2.57547 10.747Z" fill="#0F527A"/>
<path d="M2.59305 10.7274L2.56641 10.7598L7.26751 13.0942L7.29415 13.0618L2.59305 10.7274Z" fill="#0F527A"/>
<path d="M2.61258 10.704L2.58594 10.7363L7.28704 13.0707L7.31368 13.0384L2.61258 10.704Z" fill="#0F527A"/>
<path d="M2.63017 10.6825L2.60352 10.7148L7.30357 13.0505L7.33022 13.0182L2.63017 10.6825Z" fill="#0F527A"/>
<path d="M2.64776 10.661L2.62109 10.6934L7.32062 13.0297L7.34728 12.9973L2.64776 10.661Z" fill="#0F527A"/>
<path d="M2.66531 10.6395L2.63867 10.6719L7.3403 13.0056L7.36693 12.9733L2.66531 10.6395Z" fill="#0F527A"/>
<path d="M2.68092 10.62L2.6543 10.6523L7.35697 12.9848L7.38359 12.9525L2.68092 10.62Z" fill="#0F527A"/>
<path d="M2.69849 10.5985L2.67188 10.6309L7.37507 12.9627L7.40169 12.9304L2.69849 10.5985Z" fill="#0F527A"/>
<path d="M2.71803 10.577L2.69141 10.6094L7.39408 12.9419L7.4207 12.9095L2.71803 10.577Z" fill="#0F527A"/>
<path d="M2.73564 10.5526L2.70898 10.585L7.40956 12.92L7.43621 12.8877L2.73564 10.5526Z" fill="#0F527A"/>
<path d="M2.75321 10.5312L2.72656 10.5635L7.42766 12.8979L7.45431 12.8655L2.75321 10.5312Z" fill="#0F527A"/>
<path d="M2.77078 10.5106L2.74414 10.543L7.44577 12.8767L7.4724 12.8444L2.77078 10.5106Z" fill="#0F527A"/>
<path d="M2.78836 10.4901L2.76172 10.5225L7.46282 12.8569L7.48946 12.8245L2.78836 10.4901Z" fill="#0F527A"/>
<path d="M2.80789 10.4667L2.78125 10.499L7.48288 12.8328L7.50951 12.8004L2.80789 10.4667Z" fill="#0F527A"/>
<path d="M2.82548 10.4442L2.79883 10.4766L7.4994 12.8116L7.52606 12.7793L2.82548 10.4442Z" fill="#0F527A"/>
<path d="M2.84304 10.4237L2.81641 10.4561L7.51803 12.7898L7.54467 12.7575L2.84304 10.4237Z" fill="#0F527A"/>
<path d="M2.8606 10.4022L2.83398 10.4346L7.53718 12.7664L7.5638 12.7341L2.8606 10.4022Z" fill="#0F527A"/>
<path d="M2.87818 10.3827L2.85156 10.415L7.55424 12.7475L7.58086 12.7152L2.87818 10.3827Z" fill="#0F527A"/>
<path d="M2.89575 10.3612L2.86914 10.3936L7.57234 12.7254L7.59896 12.6931L2.89575 10.3612Z" fill="#0F527A"/>
<path d="M2.91335 10.3378L2.88672 10.3701L7.58887 12.7032L7.6155 12.6709L2.91335 10.3378Z" fill="#0F527A"/>
<path d="M2.93094 10.3173L2.9043 10.3496L7.6054 12.684L7.63204 12.6517L2.93094 10.3173Z" fill="#0F527A"/>
<path d="M2.94851 10.2938L2.92188 10.3262L7.6235 12.6599L7.65014 12.6276L2.94851 10.2938Z" fill="#0F527A"/>
<path d="M2.96804 10.2724L2.94141 10.3047L7.64303 12.6384L7.66967 12.6061L2.96804 10.2724Z" fill="#0F527A"/>
<path d="M2.98563 10.2509L2.95898 10.2832L7.66009 12.6176L7.68673 12.5853L2.98563 10.2509Z" fill="#0F527A"/>
<path d="M3.00321 10.2284L2.97656 10.2607L7.67714 12.5958L7.70379 12.5634L3.00321 10.2284Z" fill="#0F527A"/>
<path d="M3.0208 10.2079L2.99414 10.2402L7.69419 12.5759L7.72085 12.5436L3.0208 10.2079Z" fill="#0F527A"/>
<path d="M3.03835 10.1854L3.01172 10.2178L7.71335 12.5515L7.73998 12.5192L3.03835 10.1854Z" fill="#0F527A"/>
<path d="M3.05592 10.1659L3.0293 10.1982L7.73197 12.5307L7.7586 12.4984L3.05592 10.1659Z" fill="#0F527A"/>
<path d="M3.07349 10.1444L3.04688 10.1768L7.75008 12.5086L7.77669 12.4763L3.07349 10.1444Z" fill="#0F527A"/>
<path d="M3.09107 10.1229L3.06445 10.1553L7.76713 12.4878L7.79375 12.4554L3.09107 10.1229Z" fill="#0F527A"/>
<path d="M3.10867 10.1005L3.08203 10.1328L7.78366 12.4666L7.81029 12.4342L3.10867 10.1005Z" fill="#0F527A"/>
<path d="M3.12821 10.079L3.10156 10.1113L7.80266 12.4457L7.82931 12.4134L3.12821 10.079Z" fill="#0F527A"/>
<path d="M3.14578 10.0565L3.11914 10.0889L7.82077 12.4226L7.8474 12.3903L3.14578 10.0565Z" fill="#0F527A"/>
<path d="M3.16336 10.036L3.13672 10.0684L7.83782 12.4027L7.86446 12.3704L3.16336 10.036Z" fill="#0F527A"/>
<path d="M3.18093 10.0136L3.1543 10.0459L7.85592 12.3797L7.88256 12.3473L3.18093 10.0136Z" fill="#0F527A"/>
<path d="M3.19853 9.99014L3.17188 10.0225L7.87245 12.3575L7.8991 12.3252L3.19853 9.99014Z" fill="#0F527A"/>
<path d="M3.2161 9.96963L3.18945 10.002L7.89055 12.3363L7.9172 12.304L3.2161 9.96963Z" fill="#0F527A"/>
<path d="M3.23366 9.95009L3.20703 9.98242L7.90918 12.3155L7.93581 12.2832L3.23366 9.95009Z" fill="#0F527A"/>
<path d="M3.25122 9.9286L3.22461 9.96094L7.92781 12.2928L7.95442 12.2604L3.25122 9.9286Z" fill="#0F527A"/>
<path d="M3.26881 9.90712L3.24219 9.93945L7.94486 12.2719L7.97148 12.2396L3.26881 9.90712Z" fill="#0F527A"/>
<path d="M3.28639 9.88466L3.25977 9.91699L7.96192 12.2501L7.98855 12.2178L3.28639 9.88466Z" fill="#0F527A"/>
<path d="M3.30594 9.86123L3.2793 9.89355L7.9804 12.2279L8.00704 12.1956L3.30594 9.86123Z" fill="#0F527A"/>
<path d="M3.32351 9.83974L3.29688 9.87207L7.9985 12.2058L8.02514 12.1735L3.32351 9.83974Z" fill="#0F527A"/>
<path d="M3.3411 9.81827L3.31445 9.85059L8.01503 12.1856L8.04168 12.1533L3.3411 9.81827Z" fill="#0F527A"/>
<path d="M3.35867 9.79678L3.33203 9.8291L8.03313 12.1635L8.05978 12.1312L3.35867 9.79678Z" fill="#0F527A"/>
<path d="M3.37625 9.77432L3.34961 9.80664L8.05071 12.141L8.07735 12.1087L3.37625 9.77432Z" fill="#0F527A"/>
<path d="M3.96872 9.05609L3.36719 9.78613L8.06882 12.1199L8.67035 11.3898L3.96872 9.05609Z" fill="#0F527A"/>
</g>
<defs>
<linearGradient id="paint0_linear_29_8" x1="0.000151544" y1="9.99988" x2="20.0001" y2="9.99988" gradientUnits="userSpaceOnUse">
<stop stop-color="#024970"/>
<stop offset="1" stop-color="#4396C6"/>
</linearGradient>
<linearGradient id="paint1_linear_29_8" x1="-6.55944" y1="15.93" x2="11.654" y2="15.9301" gradientUnits="userSpaceOnUse">
<stop stop-color="#024970"/>
<stop offset="1" stop-color="#4396C6"/>
</linearGradient>
<linearGradient id="paint2_linear_29_8" x1="-6.56506" y1="15.8918" x2="11.7349" y2="15.8918" gradientUnits="userSpaceOnUse">
<stop stop-color="#024970"/>
<stop offset="1" stop-color="#4396C6"/>
</linearGradient>
<linearGradient id="paint3_linear_29_8" x1="-6.48923" y1="15.803" x2="11.8107" y2="15.803" gradientUnits="userSpaceOnUse">
<stop stop-color="#024970"/>
<stop offset="1" stop-color="#4396C6"/>
</linearGradient>
<linearGradient id="paint4_linear_29_8" x1="-6.40981" y1="15.7162" x2="11.8902" y2="15.7162" gradientUnits="userSpaceOnUse">
<stop stop-color="#024970"/>
<stop offset="1" stop-color="#4396C6"/>
</linearGradient>
<linearGradient id="paint5_linear_29_8" x1="-6.33097" y1="15.6295" x2="11.969" y2="15.6295" gradientUnits="userSpaceOnUse">
<stop stop-color="#024970"/>
<stop offset="1" stop-color="#4396C6"/>
</linearGradient>
<linearGradient id="paint6_linear_29_8" x1="-6.25282" y1="15.5411" x2="12.0475" y2="15.5412" gradientUnits="userSpaceOnUse">
<stop stop-color="#024970"/>
<stop offset="1" stop-color="#4396C6"/>
</linearGradient>
<linearGradient id="paint7_linear_29_8" x1="-6.1732" y1="15.4559" x2="12.1271" y2="15.456" gradientUnits="userSpaceOnUse">
<stop stop-color="#024970"/>
<stop offset="1" stop-color="#4396C6"/>
</linearGradient>
<linearGradient id="paint8_linear_29_8" x1="-6.09536" y1="15.3684" x2="12.2049" y2="15.3684" gradientUnits="userSpaceOnUse">
<stop stop-color="#024970"/>
<stop offset="1" stop-color="#4396C6"/>
</linearGradient>
<linearGradient id="paint9_linear_29_8" x1="-6.01653" y1="15.2794" x2="12.2834" y2="15.2794" gradientUnits="userSpaceOnUse">
<stop stop-color="#024970"/>
<stop offset="1" stop-color="#4396C6"/>
</linearGradient>
<linearGradient id="paint10_linear_29_8" x1="-5.93955" y1="15.1929" x2="12.3604" y2="15.1929" gradientUnits="userSpaceOnUse">
<stop stop-color="#024970"/>
<stop offset="1" stop-color="#4396C6"/>
</linearGradient>
<linearGradient id="paint11_linear_29_8" x1="-5.85782" y1="15.1074" x2="12.4421" y2="15.1074" gradientUnits="userSpaceOnUse">
<stop stop-color="#024970"/>
<stop offset="1" stop-color="#4396C6"/>
</linearGradient>
<linearGradient id="paint12_linear_29_8" x1="-5.78182" y1="15.0187" x2="12.5182" y2="15.0187" gradientUnits="userSpaceOnUse">
<stop stop-color="#024970"/>
<stop offset="1" stop-color="#4396C6"/>
</linearGradient>
<linearGradient id="paint13_linear_29_8" x1="-5.70117" y1="14.9329" x2="12.5988" y2="14.9329" gradientUnits="userSpaceOnUse">
<stop stop-color="#024970"/>
<stop offset="1" stop-color="#4396C6"/>
</linearGradient>
<linearGradient id="paint14_linear_29_8" x1="-5.62209" y1="14.8458" x2="12.6779" y2="14.8458" gradientUnits="userSpaceOnUse">
<stop stop-color="#024970"/>
<stop offset="1" stop-color="#4396C6"/>
</linearGradient>
<linearGradient id="paint15_linear_29_8" x1="-5.54559" y1="14.7571" x2="12.7544" y2="14.7571" gradientUnits="userSpaceOnUse">
<stop stop-color="#024970"/>
<stop offset="1" stop-color="#4396C6"/>
</linearGradient>
<linearGradient id="paint16_linear_29_8" x1="-5.46651" y1="14.6697" x2="12.8335" y2="14.6697" gradientUnits="userSpaceOnUse">
<stop stop-color="#024970"/>
<stop offset="1" stop-color="#4396C6"/>
</linearGradient>
<linearGradient id="paint17_linear_29_8" x1="-5.38548" y1="14.5841" x2="12.9148" y2="14.5841" gradientUnits="userSpaceOnUse">
<stop stop-color="#024970"/>
<stop offset="1" stop-color="#4396C6"/>
</linearGradient>
<linearGradient id="paint18_linear_29_8" x1="-5.30754" y1="14.4968" x2="12.9927" y2="14.4968" gradientUnits="userSpaceOnUse">
<stop stop-color="#024970"/>
<stop offset="1" stop-color="#4396C6"/>
</linearGradient>
<linearGradient id="paint19_linear_29_8" x1="-5.23034" y1="14.4095" x2="13.0699" y2="14.4095" gradientUnits="userSpaceOnUse">
<stop stop-color="#024970"/>
<stop offset="1" stop-color="#4396C6"/>
</linearGradient>
<linearGradient id="paint20_linear_29_8" x1="-5.15077" y1="14.3232" x2="13.1492" y2="14.3232" gradientUnits="userSpaceOnUse">
<stop stop-color="#024970"/>
<stop offset="1" stop-color="#4396C6"/>
</linearGradient>
<linearGradient id="paint21_linear_29_8" x1="-5.07389" y1="14.2337" x2="13.2261" y2="14.2337" gradientUnits="userSpaceOnUse">
<stop stop-color="#024970"/>
<stop offset="1" stop-color="#4396C6"/>
</linearGradient>
<linearGradient id="paint22_linear_29_8" x1="-4.99588" y1="14.147" x2="13.3041" y2="14.147" gradientUnits="userSpaceOnUse">
<stop stop-color="#024970"/>
<stop offset="1" stop-color="#4396C6"/>
</linearGradient>
<linearGradient id="paint23_linear_29_8" x1="-4.91503" y1="14.0616" x2="13.3849" y2="14.0616" gradientUnits="userSpaceOnUse">
<stop stop-color="#024970"/>
<stop offset="1" stop-color="#4396C6"/>
</linearGradient>
<linearGradient id="paint24_linear_29_8" x1="-4.83595" y1="13.9738" x2="13.464" y2="13.9738" gradientUnits="userSpaceOnUse">
<stop stop-color="#024970"/>
<stop offset="1" stop-color="#4396C6"/>
</linearGradient>
<linearGradient id="paint25_linear_29_8" x1="-4.75751" y1="13.887" x2="13.5425" y2="13.887" gradientUnits="userSpaceOnUse">
<stop stop-color="#024970"/>
<stop offset="1" stop-color="#4396C6"/>
</linearGradient>
<linearGradient id="paint26_linear_29_8" x1="-4.67869" y1="13.7998" x2="13.6213" y2="13.7998" gradientUnits="userSpaceOnUse">
<stop stop-color="#024970"/>
<stop offset="1" stop-color="#4396C6"/>
</linearGradient>
<linearGradient id="paint27_linear_29_8" x1="-4.60173" y1="13.7116" x2="13.6982" y2="13.7116" gradientUnits="userSpaceOnUse">
<stop stop-color="#024970"/>
<stop offset="1" stop-color="#4396C6"/>
</linearGradient>
<linearGradient id="paint28_linear_29_8" x1="-4.52266" y1="13.6245" x2="13.7776" y2="13.6246" gradientUnits="userSpaceOnUse">
<stop stop-color="#024970"/>
<stop offset="1" stop-color="#4396C6"/>
</linearGradient>
<linearGradient id="paint29_linear_29_8" x1="-4.44252" y1="13.5381" x2="13.8578" y2="13.5381" gradientUnits="userSpaceOnUse">
<stop stop-color="#024970"/>
<stop offset="1" stop-color="#4396C6"/>
</linearGradient>
<linearGradient id="paint30_linear_29_8" x1="-4.36495" y1="13.4502" x2="13.9353" y2="13.4502" gradientUnits="userSpaceOnUse">
<stop stop-color="#024970"/>
<stop offset="1" stop-color="#4396C6"/>
</linearGradient>
<linearGradient id="paint31_linear_29_8" x1="-4.28688" y1="13.3633" x2="14.0131" y2="13.3633" gradientUnits="userSpaceOnUse">
<stop stop-color="#024970"/>
<stop offset="1" stop-color="#4396C6"/>
</linearGradient>
<linearGradient id="paint32_linear_29_8" x1="-4.20781" y1="13.2773" x2="14.0922" y2="13.2773" gradientUnits="userSpaceOnUse">
<stop stop-color="#024970"/>
<stop offset="1" stop-color="#4396C6"/>
</linearGradient>
<linearGradient id="paint33_linear_29_8" x1="-4.13067" y1="13.1879" x2="14.1693" y2="13.1879" gradientUnits="userSpaceOnUse">
<stop stop-color="#024970"/>
<stop offset="1" stop-color="#4396C6"/>
</linearGradient>
<linearGradient id="paint34_linear_29_8" x1="-4.04957" y1="13.1027" x2="14.2504" y2="13.1027" gradientUnits="userSpaceOnUse">
<stop stop-color="#024970"/>
<stop offset="1" stop-color="#4396C6"/>
</linearGradient>
<linearGradient id="paint35_linear_29_8" x1="-3.97164" y1="13.0156" x2="14.3283" y2="13.0156" gradientUnits="userSpaceOnUse">
<stop stop-color="#024970"/>
<stop offset="1" stop-color="#4396C6"/>
</linearGradient>
<linearGradient id="paint36_linear_29_8" x1="-3.89255" y1="12.9277" x2="14.4074" y2="12.9277" gradientUnits="userSpaceOnUse">
<stop stop-color="#024970"/>
<stop offset="1" stop-color="#4396C6"/>
</linearGradient>
<linearGradient id="paint37_linear_29_8" x1="-3.81321" y1="12.8408" x2="14.4867" y2="12.8408" gradientUnits="userSpaceOnUse">
<stop stop-color="#024970"/>
<stop offset="1" stop-color="#4396C6"/>
</linearGradient>
<linearGradient id="paint38_linear_29_8" x1="-3.73547" y1="12.7537" x2="14.5645" y2="12.7537" gradientUnits="userSpaceOnUse">
<stop stop-color="#024970"/>
<stop offset="1" stop-color="#4396C6"/>
</linearGradient>
<linearGradient id="paint39_linear_29_8" x1="-3.65808" y1="12.6657" x2="14.6422" y2="12.6657" gradientUnits="userSpaceOnUse">
<stop stop-color="#024970"/>
<stop offset="1" stop-color="#4396C6"/>
</linearGradient>
<linearGradient id="paint40_linear_29_8" x1="-3.57926" y1="12.58" x2="14.721" y2="12.58" gradientUnits="userSpaceOnUse">
<stop stop-color="#024970"/>
<stop offset="1" stop-color="#4396C6"/>
</linearGradient>
<linearGradient id="paint41_linear_29_8" x1="-3.4993" y1="12.4923" x2="14.801" y2="12.4923" gradientUnits="userSpaceOnUse">
<stop stop-color="#024970"/>
<stop offset="1" stop-color="#4396C6"/>
</linearGradient>
<linearGradient id="paint42_linear_29_8" x1="-3.42167" y1="12.4052" x2="14.8783" y2="12.4052" gradientUnits="userSpaceOnUse">
<stop stop-color="#024970"/>
<stop offset="1" stop-color="#4396C6"/>
</linearGradient>
<linearGradient id="paint43_linear_29_8" x1="-3.3426" y1="12.3182" x2="14.9574" y2="12.3182" gradientUnits="userSpaceOnUse">
<stop stop-color="#024970"/>
<stop offset="1" stop-color="#4396C6"/>
</linearGradient>
<linearGradient id="paint44_linear_29_8" x1="-3.26475" y1="12.2298" x2="15.0352" y2="12.2298" gradientUnits="userSpaceOnUse">
<stop stop-color="#024970"/>
<stop offset="1" stop-color="#4396C6"/>
</linearGradient>
<linearGradient id="paint45_linear_29_8" x1="-3.18737" y1="12.1424" x2="15.1126" y2="12.1424" gradientUnits="userSpaceOnUse">
<stop stop-color="#024970"/>
<stop offset="1" stop-color="#4396C6"/>
</linearGradient>
<linearGradient id="paint46_linear_29_8" x1="-3.10642" y1="12.0565" x2="15.1935" y2="12.0565" gradientUnits="userSpaceOnUse">
<stop stop-color="#024970"/>
<stop offset="1" stop-color="#4396C6"/>
</linearGradient>
<linearGradient id="paint47_linear_29_8" x1="-3.02842" y1="11.9695" x2="15.2716" y2="11.9695" gradientUnits="userSpaceOnUse">
<stop stop-color="#024970"/>
<stop offset="1" stop-color="#4396C6"/>
</linearGradient>
<linearGradient id="paint48_linear_29_8" x1="-2.94933" y1="11.8819" x2="15.3506" y2="11.8819" gradientUnits="userSpaceOnUse">
<stop stop-color="#024970"/>
<stop offset="1" stop-color="#4396C6"/>
</linearGradient>
<linearGradient id="paint49_linear_29_8" x1="-2.87025" y1="11.7948" x2="15.43" y2="11.7948" gradientUnits="userSpaceOnUse">
<stop stop-color="#024970"/>
<stop offset="1" stop-color="#4396C6"/>
</linearGradient>
<linearGradient id="paint50_linear_29_8" x1="-2.79438" y1="11.7066" x2="15.5059" y2="11.7066" gradientUnits="userSpaceOnUse">
<stop stop-color="#024970"/>
<stop offset="1" stop-color="#4396C6"/>
</linearGradient>
<linearGradient id="paint51_linear_29_8" x1="-2.71511" y1="11.6202" x2="15.5852" y2="11.6202" gradientUnits="userSpaceOnUse">
<stop stop-color="#024970"/>
<stop offset="1" stop-color="#4396C6"/>
</linearGradient>
<linearGradient id="paint52_linear_29_8" x1="-2.63676" y1="11.5326" x2="15.6632" y2="11.5326" gradientUnits="userSpaceOnUse">
<stop stop-color="#024970"/>
<stop offset="1" stop-color="#4396C6"/>
</linearGradient>
<linearGradient id="paint53_linear_29_8" x1="-2.55559" y1="11.446" x2="15.7444" y2="11.446" gradientUnits="userSpaceOnUse">
<stop stop-color="#024970"/>
<stop offset="1" stop-color="#4396C6"/>
</linearGradient>
<linearGradient id="paint54_linear_29_8" x1="-2.47901" y1="11.3578" x2="15.8209" y2="11.3578" gradientUnits="userSpaceOnUse">
<stop stop-color="#024970"/>
<stop offset="1" stop-color="#4396C6"/>
</linearGradient>
<linearGradient id="paint55_linear_29_8" x1="-2.40055" y1="11.271" x2="15.8994" y2="11.271" gradientUnits="userSpaceOnUse">
<stop stop-color="#024970"/>
<stop offset="1" stop-color="#4396C6"/>
</linearGradient>
<linearGradient id="paint56_linear_29_8" x1="-2.32127" y1="11.1841" x2="15.9787" y2="11.1841" gradientUnits="userSpaceOnUse">
<stop stop-color="#024970"/>
<stop offset="1" stop-color="#4396C6"/>
</linearGradient>
<linearGradient id="paint57_linear_29_8" x1="-2.24278" y1="11.0962" x2="16.0572" y2="11.0962" gradientUnits="userSpaceOnUse">
<stop stop-color="#024970"/>
<stop offset="1" stop-color="#4396C6"/>
</linearGradient>
<linearGradient id="paint58_linear_29_8" x1="-2.16432" y1="11.0094" x2="16.1357" y2="11.0094" gradientUnits="userSpaceOnUse">
<stop stop-color="#024970"/>
<stop offset="1" stop-color="#4396C6"/>
</linearGradient>
<linearGradient id="paint59_linear_29_8" x1="-2.08545" y1="10.9225" x2="16.2145" y2="10.9225" gradientUnits="userSpaceOnUse">
<stop stop-color="#024970"/>
<stop offset="1" stop-color="#4396C6"/>
</linearGradient>
<linearGradient id="paint60_linear_29_8" x1="-2.00834" y1="10.8353" x2="16.292" y2="10.8354" gradientUnits="userSpaceOnUse">
<stop stop-color="#024970"/>
<stop offset="1" stop-color="#4396C6"/>
</linearGradient>
<linearGradient id="paint61_linear_29_8" x1="-1.92846" y1="10.7487" x2="16.3718" y2="10.7487" gradientUnits="userSpaceOnUse">
<stop stop-color="#024970"/>
<stop offset="1" stop-color="#4396C6"/>
</linearGradient>
<linearGradient id="paint62_linear_29_8" x1="-1.85071" y1="10.6606" x2="16.4496" y2="10.6606" gradientUnits="userSpaceOnUse">
<stop stop-color="#024970"/>
<stop offset="1" stop-color="#4396C6"/>
</linearGradient>
<linearGradient id="paint63_linear_29_8" x1="-1.77179" y1="10.5737" x2="16.5282" y2="10.5737" gradientUnits="userSpaceOnUse">
<stop stop-color="#024970"/>
<stop offset="1" stop-color="#4396C6"/>
</linearGradient>
<linearGradient id="paint64_linear_29_8" x1="-1.69036" y1="10.4871" x2="16.6096" y2="10.4871" gradientUnits="userSpaceOnUse">
<stop stop-color="#024970"/>
<stop offset="1" stop-color="#4396C6"/>
</linearGradient>
<linearGradient id="paint65_linear_29_8" x1="-1.61261" y1="10.4" x2="16.6873" y2="10.4" gradientUnits="userSpaceOnUse">
<stop stop-color="#024970"/>
<stop offset="1" stop-color="#4396C6"/>
</linearGradient>
<linearGradient id="paint66_linear_29_8" x1="-1.53555" y1="10.3121" x2="16.7644" y2="10.3121" gradientUnits="userSpaceOnUse">
<stop stop-color="#024970"/>
<stop offset="1" stop-color="#4396C6"/>
</linearGradient>
<linearGradient id="paint67_linear_29_8" x1="-1.45606" y1="10.2253" x2="16.8439" y2="10.2253" gradientUnits="userSpaceOnUse">
<stop stop-color="#024970"/>
<stop offset="1" stop-color="#4396C6"/>
</linearGradient>
<linearGradient id="paint68_linear_29_8" x1="-1.37807" y1="10.1383" x2="16.9219" y2="10.1384" gradientUnits="userSpaceOnUse">
<stop stop-color="#024970"/>
<stop offset="1" stop-color="#4396C6"/>
</linearGradient>
<linearGradient id="paint69_linear_29_8" x1="-1.29914" y1="10.0502" x2="17.0008" y2="10.0502" gradientUnits="userSpaceOnUse">
<stop stop-color="#024970"/>
<stop offset="1" stop-color="#4396C6"/>
</linearGradient>
<linearGradient id="paint70_linear_29_8" x1="-1.21998" y1="9.9648" x2="17.08" y2="9.96478" gradientUnits="userSpaceOnUse">
<stop stop-color="#024970"/>
<stop offset="1" stop-color="#4396C6"/>
</linearGradient>
<linearGradient id="paint71_linear_29_8" x1="-1.14291" y1="9.87635" x2="17.1574" y2="9.87638" gradientUnits="userSpaceOnUse">
<stop stop-color="#024970"/>
<stop offset="1" stop-color="#4396C6"/>
</linearGradient>
<linearGradient id="paint72_linear_29_8" x1="-1.06468" y1="9.7894" x2="17.2356" y2="9.78938" gradientUnits="userSpaceOnUse">
<stop stop-color="#024970"/>
<stop offset="1" stop-color="#4396C6"/>
</linearGradient>
<linearGradient id="paint73_linear_29_8" x1="-0.985251" y1="9.70291" x2="17.3151" y2="9.70295" gradientUnits="userSpaceOnUse">
<stop stop-color="#024970"/>
<stop offset="1" stop-color="#4396C6"/>
</linearGradient>
<linearGradient id="paint74_linear_29_8" x1="-0.906364" y1="9.6153" x2="17.3936" y2="9.61528" gradientUnits="userSpaceOnUse">
<stop stop-color="#024970"/>
<stop offset="1" stop-color="#4396C6"/>
</linearGradient>
<linearGradient id="paint75_linear_29_8" x1="-0.828138" y1="9.52777" x2="17.4718" y2="9.52776" gradientUnits="userSpaceOnUse">
<stop stop-color="#024970"/>
<stop offset="1" stop-color="#4396C6"/>
</linearGradient>
<linearGradient id="paint76_linear_29_8" x1="-0.747416" y1="9.44116" x2="17.5526" y2="9.4412" gradientUnits="userSpaceOnUse">
<stop stop-color="#024970"/>
<stop offset="1" stop-color="#4396C6"/>
</linearGradient>
<linearGradient id="paint77_linear_29_8" x1="-0.670123" y1="9.35406" x2="17.6298" y2="9.35405" gradientUnits="userSpaceOnUse">
<stop stop-color="#024970"/>
<stop offset="1" stop-color="#4396C6"/>
</linearGradient>
<linearGradient id="paint78_linear_29_8" x1="-0.591924" y1="9.26617" x2="17.7081" y2="9.2662" gradientUnits="userSpaceOnUse">
<stop stop-color="#024970"/>
<stop offset="1" stop-color="#4396C6"/>
</linearGradient>
<linearGradient id="paint79_linear_29_8" x1="-0.512401" y1="9.17938" x2="17.7876" y2="9.17937" gradientUnits="userSpaceOnUse">
<stop stop-color="#024970"/>
<stop offset="1" stop-color="#4396C6"/>
</linearGradient>
<linearGradient id="paint80_linear_29_8" x1="-0.435667" y1="9.09224" x2="17.8643" y2="9.09222" gradientUnits="userSpaceOnUse">
<stop stop-color="#024970"/>
<stop offset="1" stop-color="#4396C6"/>
</linearGradient>
<linearGradient id="paint81_linear_29_8" x1="-0.354964" y1="9.00592" x2="17.9453" y2="9.00595" gradientUnits="userSpaceOnUse">
<stop stop-color="#024970"/>
<stop offset="1" stop-color="#4396C6"/>
</linearGradient>
<linearGradient id="paint82_linear_29_8" x1="-0.277017" y1="8.91881" x2="18.0233" y2="8.9188" gradientUnits="userSpaceOnUse">
<stop stop-color="#024970"/>
<stop offset="1" stop-color="#4396C6"/>
</linearGradient>
<linearGradient id="paint83_linear_29_8" x1="-0.199257" y1="8.83041" x2="18.101" y2="8.8304" gradientUnits="userSpaceOnUse">
<stop stop-color="#024970"/>
<stop offset="1" stop-color="#4396C6"/>
</linearGradient>
<linearGradient id="paint84_linear_29_8" x1="-0.120041" y1="8.74381" x2="18.1803" y2="8.74384" gradientUnits="userSpaceOnUse">
<stop stop-color="#024970"/>
<stop offset="1" stop-color="#4396C6"/>
</linearGradient>
<linearGradient id="paint85_linear_29_8" x1="-0.0416993" y1="8.65705" x2="18.2583" y2="8.65703" gradientUnits="userSpaceOnUse">
<stop stop-color="#024970"/>
<stop offset="1" stop-color="#4396C6"/>
</linearGradient>
<linearGradient id="paint86_linear_29_8" x1="0.0372735" y1="8.56881" x2="18.3373" y2="8.56884" gradientUnits="userSpaceOnUse">
<stop stop-color="#024970"/>
<stop offset="1" stop-color="#4396C6"/>
</linearGradient>
<linearGradient id="paint87_linear_29_8" x1="0.117185" y1="8.48231" x2="18.4171" y2="8.48229" gradientUnits="userSpaceOnUse">
<stop stop-color="#024970"/>
<stop offset="1" stop-color="#4396C6"/>
</linearGradient>
<linearGradient id="paint88_linear_29_8" x1="0.193335" y1="8.39534" x2="18.4933" y2="8.39538" gradientUnits="userSpaceOnUse">
<stop stop-color="#024970"/>
<stop offset="1" stop-color="#4396C6"/>
</linearGradient>
<linearGradient id="paint89_linear_29_8" x1="0.273831" y1="8.30831" x2="18.5738" y2="8.3083" gradientUnits="userSpaceOnUse">
<stop stop-color="#024970"/>
<stop offset="1" stop-color="#4396C6"/>
</linearGradient>
<linearGradient id="paint90_linear_29_8" x1="0.350311" y1="8.22089" x2="18.6503" y2="8.22087" gradientUnits="userSpaceOnUse">
<stop stop-color="#024970"/>
<stop offset="1" stop-color="#4396C6"/>
</linearGradient>
<linearGradient id="paint91_linear_29_8" x1="0.429563" y1="8.13372" x2="18.7295" y2="8.13375" gradientUnits="userSpaceOnUse">
<stop stop-color="#024970"/>
<stop offset="1" stop-color="#4396C6"/>
</linearGradient>
<linearGradient id="paint92_linear_29_8" x1="0.510182" y1="8.04646" x2="18.8105" y2="8.04644" gradientUnits="userSpaceOnUse">
<stop stop-color="#024970"/>
<stop offset="1" stop-color="#4396C6"/>
</linearGradient>
<linearGradient id="paint93_linear_29_8" x1="0.58783" y1="7.96012" x2="18.8881" y2="7.9601" gradientUnits="userSpaceOnUse">
<stop stop-color="#024970"/>
<stop offset="1" stop-color="#4396C6"/>
</linearGradient>
<linearGradient id="paint94_linear_29_8" x1="0.665791" y1="7.87209" x2="18.9661" y2="7.87213" gradientUnits="userSpaceOnUse">
<stop stop-color="#024970"/>
<stop offset="1" stop-color="#4396C6"/>
</linearGradient>
<linearGradient id="paint95_linear_29_8" x1="0.74685" y1="7.78558" x2="19.0468" y2="7.78556" gradientUnits="userSpaceOnUse">
<stop stop-color="#024970"/>
<stop offset="1" stop-color="#4396C6"/>
</linearGradient>
<linearGradient id="paint96_linear_29_8" x1="0.823329" y1="7.69815" x2="19.1233" y2="7.69813" gradientUnits="userSpaceOnUse">
<stop stop-color="#024970"/>
<stop offset="1" stop-color="#4396C6"/>
</linearGradient>
<linearGradient id="paint97_linear_29_8" x1="0.901872" y1="7.61082" x2="19.2019" y2="7.61085" gradientUnits="userSpaceOnUse">
<stop stop-color="#024970"/>
<stop offset="1" stop-color="#4396C6"/>
</linearGradient>
<linearGradient id="paint98_linear_29_8" x1="0.982474" y1="7.52355" x2="19.2824" y2="7.52353" gradientUnits="userSpaceOnUse">
<stop stop-color="#024970"/>
<stop offset="1" stop-color="#4396C6"/>
</linearGradient>
<linearGradient id="paint99_linear_29_8" x1="1.06048" y1="7.43681" x2="19.3604" y2="7.43679" gradientUnits="userSpaceOnUse">
<stop stop-color="#024970"/>
<stop offset="1" stop-color="#4396C6"/>
</linearGradient>
<linearGradient id="paint100_linear_29_8" x1="1.13922" y1="7.34926" x2="19.4392" y2="7.34924" gradientUnits="userSpaceOnUse">
<stop stop-color="#024970"/>
<stop offset="1" stop-color="#4396C6"/>
</linearGradient>
<linearGradient id="paint101_linear_29_8" x1="1.21917" y1="7.26228" x2="19.5192" y2="7.26232" gradientUnits="userSpaceOnUse">
<stop stop-color="#024970"/>
<stop offset="1" stop-color="#4396C6"/>
</linearGradient>
<linearGradient id="paint102_linear_29_8" x1="1.29397" y1="7.17498" x2="19.5939" y2="7.17496" gradientUnits="userSpaceOnUse">
<stop stop-color="#024970"/>
<stop offset="1" stop-color="#4396C6"/>
</linearGradient>
<linearGradient id="paint103_linear_29_8" x1="1.37539" y1="7.08858" x2="19.6757" y2="7.08856" gradientUnits="userSpaceOnUse">
<stop stop-color="#024970"/>
<stop offset="1" stop-color="#4396C6"/>
</linearGradient>
<linearGradient id="paint104_linear_29_8" x1="1.45303" y1="7.00103" x2="19.7533" y2="7.00107" gradientUnits="userSpaceOnUse">
<stop stop-color="#024970"/>
<stop offset="1" stop-color="#4396C6"/>
</linearGradient>
<linearGradient id="paint105_linear_29_8" x1="1.53123" y1="6.91309" x2="19.8315" y2="6.91308" gradientUnits="userSpaceOnUse">
<stop stop-color="#024970"/>
<stop offset="1" stop-color="#4396C6"/>
</linearGradient>
<linearGradient id="paint106_linear_29_8" x1="1.61206" y1="6.82648" x2="19.912" y2="6.82646" gradientUnits="userSpaceOnUse">
<stop stop-color="#024970"/>
<stop offset="1" stop-color="#4396C6"/>
</linearGradient>
<linearGradient id="paint107_linear_29_8" x1="1.68834" y1="6.73927" x2="19.9883" y2="6.7393" gradientUnits="userSpaceOnUse">
<stop stop-color="#024970"/>
<stop offset="1" stop-color="#4396C6"/>
</linearGradient>
<linearGradient id="paint108_linear_29_8" x1="1.76681" y1="6.65245" x2="20.0668" y2="6.65243" gradientUnits="userSpaceOnUse">
<stop stop-color="#024970"/>
<stop offset="1" stop-color="#4396C6"/>
</linearGradient>
<linearGradient id="paint109_linear_29_8" x1="1.84608" y1="6.56504" x2="20.1461" y2="6.56507" gradientUnits="userSpaceOnUse">
<stop stop-color="#024970"/>
<stop offset="1" stop-color="#4396C6"/>
</linearGradient>
<linearGradient id="paint110_linear_29_8" x1="1.92569" y1="6.47771" x2="20.2257" y2="6.47769" gradientUnits="userSpaceOnUse">
<stop stop-color="#024970"/>
<stop offset="1" stop-color="#4396C6"/>
</linearGradient>
<linearGradient id="paint111_linear_29_8" x1="2.00425" y1="6.39036" x2="20.3042" y2="6.39034" gradientUnits="userSpaceOnUse">
<stop stop-color="#024970"/>
<stop offset="1" stop-color="#4396C6"/>
</linearGradient>
<linearGradient id="paint112_linear_29_8" x1="2.08244" y1="6.30317" x2="20.3824" y2="6.30315" gradientUnits="userSpaceOnUse">
<stop stop-color="#024970"/>
<stop offset="1" stop-color="#4396C6"/>
</linearGradient>
<linearGradient id="paint113_linear_29_8" x1="2.15892" y1="6.21574" x2="20.4592" y2="6.21572" gradientUnits="userSpaceOnUse">
<stop stop-color="#024970"/>
<stop offset="1" stop-color="#4396C6"/>
</linearGradient>
<linearGradient id="paint114_linear_29_8" x1="2.24059" y1="6.12949" x2="20.5409" y2="6.12953" gradientUnits="userSpaceOnUse">
<stop stop-color="#024970"/>
<stop offset="1" stop-color="#4396C6"/>
</linearGradient>
<linearGradient id="paint115_linear_29_8" x1="2.3188" y1="6.04229" x2="20.6191" y2="6.04227" gradientUnits="userSpaceOnUse">
<stop stop-color="#024970"/>
<stop offset="1" stop-color="#4396C6"/>
</linearGradient>
<linearGradient id="paint116_linear_29_8" x1="2.39626" y1="5.95517" x2="20.6965" y2="5.95515" gradientUnits="userSpaceOnUse">
<stop stop-color="#024970"/>
<stop offset="1" stop-color="#4396C6"/>
</linearGradient>
<linearGradient id="paint117_linear_29_8" x1="2.47726" y1="5.86764" x2="20.7772" y2="5.86767" gradientUnits="userSpaceOnUse">
<stop stop-color="#024970"/>
<stop offset="1" stop-color="#4396C6"/>
</linearGradient>
<linearGradient id="paint118_linear_29_8" x1="2.55528" y1="5.78063" x2="20.8552" y2="5.78062" gradientUnits="userSpaceOnUse">
<stop stop-color="#024970"/>
<stop offset="1" stop-color="#4396C6"/>
</linearGradient>
<linearGradient id="paint119_linear_29_8" x1="2.63202" y1="5.69334" x2="20.932" y2="5.69333" gradientUnits="userSpaceOnUse">
<stop stop-color="#024970"/>
<stop offset="1" stop-color="#4396C6"/>
</linearGradient>
<linearGradient id="paint120_linear_29_8" x1="2.71039" y1="5.6062" x2="21.0104" y2="5.60618" gradientUnits="userSpaceOnUse">
<stop stop-color="#024970"/>
<stop offset="1" stop-color="#4396C6"/>
</linearGradient>
<linearGradient id="paint121_linear_29_8" x1="2.78895" y1="5.5186" x2="21.0889" y2="5.51859" gradientUnits="userSpaceOnUse">
<stop stop-color="#024970"/>
<stop offset="1" stop-color="#4396C6"/>
</linearGradient>
<linearGradient id="paint122_linear_29_8" x1="2.86908" y1="5.43167" x2="21.1691" y2="5.43171" gradientUnits="userSpaceOnUse">
<stop stop-color="#024970"/>
<stop offset="1" stop-color="#4396C6"/>
</linearGradient>
<linearGradient id="paint123_linear_29_8" x1="2.94561" y1="5.34456" x2="21.2456" y2="5.34455" gradientUnits="userSpaceOnUse">
<stop stop-color="#024970"/>
<stop offset="1" stop-color="#4396C6"/>
</linearGradient>
<linearGradient id="paint124_linear_29_8" x1="3.02567" y1="5.25732" x2="21.3259" y2="5.2573" gradientUnits="userSpaceOnUse">
<stop stop-color="#024970"/>
<stop offset="1" stop-color="#4396C6"/>
</linearGradient>
<linearGradient id="paint125_linear_29_8" x1="3.10241" y1="5.17004" x2="21.4027" y2="5.17002" gradientUnits="userSpaceOnUse">
<stop stop-color="#024970"/>
<stop offset="1" stop-color="#4396C6"/>
</linearGradient>
<linearGradient id="paint126_linear_29_8" x1="3.18184" y1="5.08294" x2="21.4821" y2="5.08293" gradientUnits="userSpaceOnUse">
<stop stop-color="#024970"/>
<stop offset="1" stop-color="#4396C6"/>
</linearGradient>
<linearGradient id="paint127_linear_29_8" x1="3.26164" y1="4.99588" x2="21.5619" y2="4.99592" gradientUnits="userSpaceOnUse">
<stop stop-color="#024970"/>
<stop offset="1" stop-color="#4396C6"/>
</linearGradient>
<linearGradient id="paint128_linear_29_8" x1="3.34009" y1="4.90858" x2="21.64" y2="4.90856" gradientUnits="userSpaceOnUse">
<stop stop-color="#024970"/>
<stop offset="1" stop-color="#4396C6"/>
</linearGradient>
<linearGradient id="paint129_linear_29_8" x1="3.41643" y1="4.82132" x2="21.7164" y2="4.8213" gradientUnits="userSpaceOnUse">
<stop stop-color="#024970"/>
<stop offset="1" stop-color="#4396C6"/>
</linearGradient>
<linearGradient id="paint130_linear_29_8" x1="3.4951" y1="4.73445" x2="21.7951" y2="4.73443" gradientUnits="userSpaceOnUse">
<stop stop-color="#024970"/>
<stop offset="1" stop-color="#4396C6"/>
</linearGradient>
<linearGradient id="paint131_linear_29_8" x1="3.57561" y1="4.6471" x2="21.8756" y2="4.64708" gradientUnits="userSpaceOnUse">
<stop stop-color="#024970"/>
<stop offset="1" stop-color="#4396C6"/>
</linearGradient>
<linearGradient id="paint132_linear_29_8" x1="3.65264" y1="4.56069" x2="21.9526" y2="4.56072" gradientUnits="userSpaceOnUse">
<stop stop-color="#024970"/>
<stop offset="1" stop-color="#4396C6"/>
</linearGradient>
<linearGradient id="paint133_linear_29_8" x1="3.73163" y1="4.47336" x2="22.0316" y2="4.47335" gradientUnits="userSpaceOnUse">
<stop stop-color="#024970"/>
<stop offset="1" stop-color="#4396C6"/>
</linearGradient>
<linearGradient id="paint134_linear_29_8" x1="3.81059" y1="4.38564" x2="22.1105" y2="4.38563" gradientUnits="userSpaceOnUse">
<stop stop-color="#024970"/>
<stop offset="1" stop-color="#4396C6"/>
</linearGradient>
<linearGradient id="paint135_linear_29_8" x1="3.88905" y1="4.29886" x2="22.1894" y2="4.2989" gradientUnits="userSpaceOnUse">
<stop stop-color="#024970"/>
<stop offset="1" stop-color="#4396C6"/>
</linearGradient>
<linearGradient id="paint136_linear_29_8" x1="3.96816" y1="4.21131" x2="22.2684" y2="4.21129" gradientUnits="userSpaceOnUse">
<stop stop-color="#024970"/>
<stop offset="1" stop-color="#4396C6"/>
</linearGradient>
<linearGradient id="paint137_linear_29_8" x1="4.04531" y1="4.12493" x2="22.3456" y2="4.12492" gradientUnits="userSpaceOnUse">
<stop stop-color="#024970"/>
<stop offset="1" stop-color="#4396C6"/>
</linearGradient>
<linearGradient id="paint138_linear_29_8" x1="4.12736" y1="4.03779" x2="22.4273" y2="4.03777" gradientUnits="userSpaceOnUse">
<stop stop-color="#024970"/>
<stop offset="1" stop-color="#4396C6"/>
</linearGradient>
<linearGradient id="paint139_linear_29_8" x1="4.20537" y1="3.94982" x2="22.5053" y2="3.94981" gradientUnits="userSpaceOnUse">
<stop stop-color="#024970"/>
<stop offset="1" stop-color="#4396C6"/>
</linearGradient>
<linearGradient id="paint140_linear_29_8" x1="4.28176" y1="3.86298" x2="22.5817" y2="3.86302" gradientUnits="userSpaceOnUse">
<stop stop-color="#024970"/>
<stop offset="1" stop-color="#4396C6"/>
</linearGradient>
<linearGradient id="paint141_linear_29_8" x1="4.36176" y1="3.77624" x2="22.6617" y2="3.77622" gradientUnits="userSpaceOnUse">
<stop stop-color="#024970"/>
<stop offset="1" stop-color="#4396C6"/>
</linearGradient>
<linearGradient id="paint142_linear_29_8" x1="4.44088" y1="3.68835" x2="22.7409" y2="3.68839" gradientUnits="userSpaceOnUse">
<stop stop-color="#024970"/>
<stop offset="1" stop-color="#4396C6"/>
</linearGradient>
<linearGradient id="paint143_linear_29_8" x1="4.51808" y1="3.60169" x2="22.818" y2="3.60167" gradientUnits="userSpaceOnUse">
<stop stop-color="#024970"/>
<stop offset="1" stop-color="#4396C6"/>
</linearGradient>
<linearGradient id="paint144_linear_29_8" x1="4.59988" y1="3.51428" x2="22.8998" y2="3.51426" gradientUnits="userSpaceOnUse">
<stop stop-color="#024970"/>
<stop offset="1" stop-color="#4396C6"/>
</linearGradient>
<linearGradient id="paint145_linear_29_8" x1="4.67601" y1="3.42765" x2="22.976" y2="3.42769" gradientUnits="userSpaceOnUse">
<stop stop-color="#024970"/>
<stop offset="1" stop-color="#4396C6"/>
</linearGradient>
<linearGradient id="paint146_linear_29_8" x1="4.75423" y1="3.3407" x2="23.0545" y2="3.34068" gradientUnits="userSpaceOnUse">
<stop stop-color="#024970"/>
<stop offset="1" stop-color="#4396C6"/>
</linearGradient>
<linearGradient id="paint147_linear_29_8" x1="4.83327" y1="3.253" x2="23.1335" y2="3.25298" gradientUnits="userSpaceOnUse">
<stop stop-color="#024970"/>
<stop offset="1" stop-color="#4396C6"/>
</linearGradient>
<linearGradient id="paint148_linear_29_8" x1="4.91145" y1="3.16582" x2="23.2117" y2="3.16586" gradientUnits="userSpaceOnUse">
<stop stop-color="#024970"/>
<stop offset="1" stop-color="#4396C6"/>
</linearGradient>
<linearGradient id="paint149_linear_29_8" x1="4.9907" y1="3.07873" x2="23.2907" y2="3.07872" gradientUnits="userSpaceOnUse">
<stop stop-color="#024970"/>
<stop offset="1" stop-color="#4396C6"/>
</linearGradient>
<linearGradient id="paint150_linear_29_8" x1="5.07077" y1="2.99174" x2="23.3707" y2="2.99173" gradientUnits="userSpaceOnUse">
<stop stop-color="#024970"/>
<stop offset="1" stop-color="#4396C6"/>
</linearGradient>
<linearGradient id="paint151_linear_29_8" x1="5.1472" y1="2.90398" x2="23.4472" y2="2.90397" gradientUnits="userSpaceOnUse">
<stop stop-color="#024970"/>
<stop offset="1" stop-color="#4396C6"/>
</linearGradient>
<linearGradient id="paint152_linear_29_8" x1="5.22479" y1="2.81731" x2="23.5247" y2="2.8173" gradientUnits="userSpaceOnUse">
<stop stop-color="#024970"/>
<stop offset="1" stop-color="#4396C6"/>
</linearGradient>
<linearGradient id="paint153_linear_29_8" x1="5.30415" y1="2.73046" x2="23.6041" y2="2.73044" gradientUnits="userSpaceOnUse">
<stop stop-color="#024970"/>
<stop offset="1" stop-color="#4396C6"/>
</linearGradient>
<linearGradient id="paint154_linear_29_8" x1="5.3843" y1="2.64327" x2="23.6843" y2="2.64325" gradientUnits="userSpaceOnUse">
<stop stop-color="#024970"/>
<stop offset="1" stop-color="#4396C6"/>
</linearGradient>
<linearGradient id="paint155_linear_29_8" x1="5.46314" y1="2.55518" x2="23.7631" y2="2.55516" gradientUnits="userSpaceOnUse">
<stop stop-color="#024970"/>
<stop offset="1" stop-color="#4396C6"/>
</linearGradient>
<linearGradient id="paint156_linear_29_8" x1="5.54058" y1="2.46895" x2="23.8405" y2="2.46893" gradientUnits="userSpaceOnUse">
<stop stop-color="#024970"/>
<stop offset="1" stop-color="#4396C6"/>
</linearGradient>
<linearGradient id="paint157_linear_29_8" x1="5.61966" y1="2.38172" x2="23.9199" y2="2.3817" gradientUnits="userSpaceOnUse">
<stop stop-color="#024970"/>
<stop offset="1" stop-color="#4396C6"/>
</linearGradient>
<linearGradient id="paint158_linear_29_8" x1="5.69769" y1="2.29401" x2="23.998" y2="2.29399" gradientUnits="userSpaceOnUse">
<stop stop-color="#024970"/>
<stop offset="1" stop-color="#4396C6"/>
</linearGradient>
<linearGradient id="paint159_linear_29_8" x1="5.77682" y1="2.20775" x2="24.0772" y2="2.20784" gradientUnits="userSpaceOnUse">
<stop stop-color="#024970"/>
<stop offset="1" stop-color="#4396C6"/>
</linearGradient>
<linearGradient id="paint160_linear_29_8" x1="5.85399" y1="2.11995" x2="24.1539" y2="2.11994" gradientUnits="userSpaceOnUse">
<stop stop-color="#024970"/>
<stop offset="1" stop-color="#4396C6"/>
</linearGradient>
<linearGradient id="paint161_linear_29_8" x1="5.93579" y1="2.03284" x2="24.2357" y2="2.03283" gradientUnits="userSpaceOnUse">
<stop stop-color="#024970"/>
<stop offset="1" stop-color="#4396C6"/>
</linearGradient>
<linearGradient id="paint162_linear_29_8" x1="6.01242" y1="1.94646" x2="24.3124" y2="1.94655" gradientUnits="userSpaceOnUse">
<stop stop-color="#024970"/>
<stop offset="1" stop-color="#4396C6"/>
</linearGradient>
<linearGradient id="paint163_linear_29_8" x1="6.09022" y1="1.85833" x2="24.3902" y2="1.85831" gradientUnits="userSpaceOnUse">
<stop stop-color="#024970"/>
<stop offset="1" stop-color="#4396C6"/>
</linearGradient>
<linearGradient id="paint164_linear_29_8" x1="6.16851" y1="1.77174" x2="24.4685" y2="1.77172" gradientUnits="userSpaceOnUse">
<stop stop-color="#024970"/>
<stop offset="1" stop-color="#4396C6"/>
</linearGradient>
<linearGradient id="paint165_linear_29_8" x1="6.24763" y1="1.68476" x2="24.5476" y2="1.68474" gradientUnits="userSpaceOnUse">
<stop stop-color="#024970"/>
<stop offset="1" stop-color="#4396C6"/>
</linearGradient>
<linearGradient id="paint166_linear_29_8" x1="6.32663" y1="1.5965" x2="24.6266" y2="1.59649" gradientUnits="userSpaceOnUse">
<stop stop-color="#024970"/>
<stop offset="1" stop-color="#4396C6"/>
</linearGradient>
<linearGradient id="paint167_linear_29_8" x1="6.40617" y1="0.627963" x2="26.2967" y2="0.627968" gradientUnits="userSpaceOnUse">
<stop stop-color="#024970"/>
<stop offset="1" stop-color="#4396C6"/>
</linearGradient>
</defs>
</svg>
